<svg id="Layer_2" data-name="Layer 2" xmlns="http://www.w3.org/2000/svg" viewBox="0 0 257 251.03"><defs><style>.cls-1{fill:#adcdec;stroke:#231f20;stroke-miterlimit:10;}.cls-2{fill:#d85e5b;}.cls-3{fill:#231f20;}.cls-4{fill:#f89f6c;}.cls-5{fill:#fff;}</style></defs><path class="cls-1" d="M256.5,125.51c0,69.05-57.31,125-128,125s-128-56-128-125S57.81.5,128.5.5,256.5,56.47,256.5,125.51Z"/><g id="Cotton"><path d="M178.47,83.2a2,2,0,0,1,0,.35,1.87,1.87,0,0,0,0-.34Z"/><path d="M180.89,66.24h0a0,0,0,0,0,0,0Z"/><path d="M182.39,65.7h0l-.15-.06Z"/><path d="M159.87,39.59a3.2,3.2,0,0,1-1-.92A7.69,7.69,0,0,0,159.87,39.59Z"/><path d="M177.7,58.32l0,0v0h.05S177.7,58.3,177.7,58.32Z"/><path d="M186.75,110.71s0,0,0,0l0,0Zm-1.5-15.66h0c0,.13.11.26.17.39C185.36,95.32,185.3,95.19,185.25,95.05Zm-.39-1.36v0h0Z"/><path class="cls-2" d="M182.38,65.71a.21.21,0,0,1-.06.08.67.67,0,0,1-.16.12c-.16.1-.32.19-.29.48a22.77,22.77,0,0,1,0,2.48h-.2c0-.39-.07-.79-.1-1.18-.18,1.36-.08,2.75-.39,4.28a1.07,1.07,0,0,1-.2-1.16,11.52,11.52,0,0,0,.29-3.7,1.51,1.51,0,0,0,0-.3.86.86,0,0,0-.07-.21.71.71,0,0,0-.27-.33l0,0h0a3.31,3.31,0,0,0-.23-1.89c-.24-.74-.53-1.46-.75-2.22l.15.18a7.44,7.44,0,0,1,.86,1.85l.34-.23c.3.55.24,1.29.83,1.64l.13.07Z"/><path class="cls-2" d="M188.28,106.78a1.33,1.33,0,0,0,.29-1.55,3.73,3.73,0,0,1-.22-.61c0-.42-.19-1,0-1.25s.26-.36.2-.58q-.53-2.22-1.08-4.44c0-.11-.09-.26-.18-.3-.48-.19-.38-.67-.52-1-.07-.19-.08-.42-.17-.61-.23-.54-.48-1.08-.72-1.61a4.57,4.57,0,0,0-.82-1.35c-1-1.43-2.62-3.59-2.65-3.67a16.35,16.35,0,0,0-1.76-1.84h0a1.85,1.85,0,0,0-.63-.52,25,25,0,0,0-2.33-1c-.8-.29-.8-.27-.33-.94a5.17,5.17,0,0,0,1.08-1.94,1.87,1.87,0,0,0,0-.34h0v0l0,0a2.28,2.28,0,0,0,.55-.62,2.39,2.39,0,0,0,.15-.37,1.66,1.66,0,0,0,0-.67v-.65c.18-.12.49-.22.54-.39a10.14,10.14,0,0,0,.43-1.79,9,9,0,0,0,0-1.27c0-.31.05-.62,0-.93a5.7,5.7,0,0,1,.62-3.53s0-.1,0-.16l-.43.1a22.9,22.9,0,0,0,.46-6.63,0,0,0,0,0,0,0l-.1-.15a.72.72,0,0,1-.09-.2A36.94,36.94,0,0,0,178.83,61c-.44-1.16-1.45-1.75-2-2.74a1.81,1.81,0,0,0,.39,1.37,9.29,9.29,0,0,1,1.52,2.45,8.85,8.85,0,0,1,1.12,3.72c0,.7-.1,1.52.67,2,.07,0,.06.29,0,.43s-.14.41-.15.62c-.07,1-.12,2.11-.18,3.16a30.1,30.1,0,0,1-.67,4.81,10.93,10.93,0,0,1-1,3.5,1.65,1.65,0,0,0-.11.45,8.89,8.89,0,0,1-4,5.94c-.64.4-1.34.62-2,1a6.4,6.4,0,0,1-2.39.74l-1.49.22q.06.5.15,1a2.55,2.55,0,0,0,1.42-.05c1.32-.47,2.66-.89,4-1.41a4,4,0,0,0,1.33-1c.51-.53.49-.61,1.15-.33a19.26,19.26,0,0,1,1.93,1,2.49,2.49,0,0,0,.4.2c-.18,0,2.82,3.47,4.57,5.68,1.06,2.15,2.59,3.92,3.07,6.22.06-.85-.75-2.87-1.7-4.58l.36-.26h0c.05.14.11.27.16.4s.27.55.42.83.29.54.42.82a12,12,0,0,1,1.26,6.41l0,3.55a1.52,1.52,0,0,0,.31,1.13.91.91,0,0,1,.07.68c0,.12-.22.21-.37.33-.16-.34-.27-.6-.39-.86l-.2,0c0,.25-.1.55,0,.76a1.89,1.89,0,0,1-.14,1.58h0c-.06.32-.28.77-.15.94.52.69.14,1.22-.19,1.79l.07-1.21-.23,0a3.19,3.19,0,0,0-.33.7,9,9,0,0,1-1.81,3.44,9.16,9.16,0,0,0-1.55,2.15,5.75,5.75,0,0,0-.85.52c-.44.44-.83.93-1.27,1.36-.78.76-1.62,1.47-2.38,2.25a13.15,13.15,0,0,1-4.67,3.31,1.28,1.28,0,0,0-.93,1.44,10.55,10.55,0,0,1,.08,1.49,3.55,3.55,0,0,1-.3,1.84c-.11-.91-.12-1.81-.16-2.7s-.17-1.74-.19-2.61a9.1,9.1,0,0,1-.13-2.67l.71.57a3.62,3.62,0,0,0,0,2.3c.72-.12.9-.63,1.06-1.21a1.23,1.23,0,0,0-.29,0,2.27,2.27,0,0,0-.37.08v-.86a2.63,2.63,0,0,1-.49-1.21l-.11.11c-.18-.08-.44-.17-.68-.29-.63-.32-.93-.24-1,.41a7,7,0,0,0-.1,1.77,28,28,0,0,0,.43,3.15,55.84,55.84,0,0,1,.52,8.76c0,.78-.07,1.56-.08,2.34a6.24,6.24,0,0,1-1.16,3.59,36.14,36.14,0,0,1-5.84,6.56,12.22,12.22,0,0,1-6.17,3.18c-1.08.15-2.17.2-3.26.29-.59.05-1.18.12-1.78.13-.83,0-.91-.09-.86-.9s0-1.38.07-2.06c0-.35,0-.64-.44-.67s-.6.29-.58.77a7.85,7.85,0,0,1,0,.84c-.08,1.55-.14,3.11-.24,4.67a12.62,12.62,0,0,1-2.53,6.35,2.26,2.26,0,0,1-.28.25,21.55,21.55,0,0,1-4.07,3,12,12,0,0,1-5.15,1.89l-.38.07a5.12,5.12,0,0,1-.54.1c-.66.16-1.32.37-2,.53a10.76,10.76,0,0,1-3.57.62,9.89,9.89,0,0,1-4.8-1.67c-.49-.34-1-.7-1.43-1.06-2.24-1.68-4-3.68-4.45-6.57-.1-.61-.32-.74-.9-.59a2.24,2.24,0,0,0-.53.2,20.15,20.15,0,0,1-4.06,1.63,29.09,29.09,0,0,1-9.45,1.11,3.46,3.46,0,0,1-1.2-.18c-2.14-.84-4.26-1.72-6.39-2.61a3.4,3.4,0,0,1-.86-.55c-.55-.46-1.1-.93-1.61-1.43a17,17,0,0,1-4.8-8.83,9.36,9.36,0,0,1,1.07-6.74c.36-.63.34-.68-.45-1.09l-2,3.68a3.52,3.52,0,0,1-.36-.07,29.44,29.44,0,0,1-6.61-2.82,13.1,13.1,0,0,1-3-2.1c-1.1-1.06-2.26-2.06-3.38-3.1-.51-.48-1.14-.92-1-1.78,0-.13-.13-.28-.2-.42l-1-1.81a12,12,0,0,1-1.64-4c-.07-.47-.17-.93-.28-1.38a5.15,5.15,0,0,1,0-2.78c.46-1.46,1-2.89,1.42-4.36a13.74,13.74,0,0,1,2-4.21c.61-.89,1.37-1.68,2-2.42l1.89.93a5.85,5.85,0,0,1,1.79-1l-2.91-1.63c-.54-.31-1.1-.59-1.62-.93-.7-.47-1.35-1-2-1.48a7.22,7.22,0,0,1-2.33-2.27c-1.22-2.07-2.38-4.17-3.55-6.27a6,6,0,0,1-.6-1.46,22.28,22.28,0,0,1-.47-2.67,7.54,7.54,0,0,1,0-3.89c.47-1.16.9-2.34,1.44-3.46a14.25,14.25,0,0,1,2.9-4.11c.57-.55.83-.55,1.46-.07a5.38,5.38,0,0,0,.64.54.58.58,0,0,0,.51-.08.54.54,0,0,0,.07-.49,12.08,12.08,0,0,0-1-1.44c-.88-1-1.85-2-1.88-3.54a.48.48,0,0,0-.09-.26l-.14-.18a2.12,2.12,0,0,1-.82-.75l.06.28a7.91,7.91,0,0,1-1.19-2.92c-.35-1.74.11-3.48,0-5.22a.63.63,0,0,1,0-.19c.3-1.14.58-2.3.93-3.43a5.25,5.25,0,0,1,.84-2A13,13,0,0,1,76,61.09c.57-.32,1.22-.5,1.79-.81a9.37,9.37,0,0,1,3.51-.92,1.38,1.38,0,0,1,1.2.4c.05.06.17.06.3.09.11-.21.22-.42.32-.64,1.14.1,2.26.21,3.38.28.84,0,1.68.08,2.53,0,.17,0,.42-.25.49-.43s-.12-.47-.39-.53a13.12,13.12,0,0,0-1.75-.32c-1.49-.11-3-.17-4.49-.23a1.32,1.32,0,0,1-1.2-.73c-.34-.6-.73-1.17-1.07-1.77-.68-1.25-1.62-2.41-1.39-4a.62.62,0,0,0,0-.18c-.18-.85-.34-1.71-.56-2.56A10.3,10.3,0,0,1,79,43.36a8.92,8.92,0,0,1,2.38-4,17.67,17.67,0,0,1,3.92-3.3,15.14,15.14,0,0,1,2.33-.94A21.78,21.78,0,0,0,91.7,33.6a2.8,2.8,0,0,1,1.07-.3,14.9,14.9,0,0,1,4.94.07c1,.27,1,.21,1.12,1.24a24.34,24.34,0,0,0,.67,2.9.67.67,0,0,0,.51.4c.34,0,.43-.3.39-.61a2.68,2.68,0,0,0-.07-.27A22.69,22.69,0,0,1,100,34a4.26,4.26,0,0,1,1-3.39,32.37,32.37,0,0,1,3.55-3.19c1.8-1.27,3.77-2.31,5.65-3.47a12,12,0,0,1,1.62-1.08,10.46,10.46,0,0,1,4.62-1,19.8,19.8,0,0,1,5,1,10.83,10.83,0,0,1,3.52,1.7c.33.26.88.67,1.43,1.07.92.69,1.87,1.37,1.87,1.37a14.77,14.77,0,0,1,3.57,5.87,3.82,3.82,0,0,0,.35.66,3.71,3.71,0,0,1,.85,2.23.7.7,0,0,0,.1.36.5.5,0,0,0,.9.1,1.12,1.12,0,0,0,.28-1.12c-.27-1-.52-1.93-.79-2.89a1.3,1.3,0,0,0-.95-1.05c-.24,0-.43-.32-.73-.55a1.2,1.2,0,0,0,0-1.58,2.77,2.77,0,0,1,.29-.4,3.38,3.38,0,0,1,2.49-1.11,3.53,3.53,0,0,0,2.42-.53.69.69,0,0,1,.66.08,2.05,2.05,0,0,0,1.57.46,5.45,5.45,0,0,1,1.21,0l1.46.34c1.46.34,2.91.7,4.35,1.09,1.25.35,2.46.8,3.69,1.21h0l0,0c.19.14.36.31.56.43a20.49,20.49,0,0,1,4.31,3l0,0c.28.27,3.32,3.23,4.48,4.25h0A22.65,22.65,0,0,1,162.74,44a5.25,5.25,0,0,0,.28.59c.07.19.12.38.21.66a1,1,0,0,1-.86-.74c-.15-.57-.31-1.14-.44-1.72s-.25-1-.9-1a3,3,0,0,0-1.16-2.27,3.2,3.2,0,0,1-1-.92s0,0,0,0l-.31-.36a3.6,3.6,0,0,0,.35,1l0,0c.22.37.47.73.71,1.1a36.56,36.56,0,0,1,2.78,5.82,12.29,12.29,0,0,1,.65,1.65c.26,1.09.41,2.2.65,3.3a5.76,5.76,0,0,1-.42,3.18c-.24.7-.68,1.32-1,2-.2.44-.32.92-.48,1.39l.15.15c.16-.07.37-.09.47-.2a4.34,4.34,0,0,0,.58-.84,15.8,15.8,0,0,0,1.47-3l.09-.29a1.38,1.38,0,0,1,.16-.37h0a2.16,2.16,0,0,1,.21-.29,1.59,1.59,0,0,1,.87-.47,3.35,3.35,0,0,0,.53-.19c1.88-.78,3.6-.19,5.27.67.18.09.29.3.43.45h0l.9.4A10,10,0,0,1,176,56c.57.58,1.4.95,1.45,1.93,0,.1.12.2.21.3h.05s0,0,0,.06l.07.11c.65,1,1.7,3.09,2.3,3.89a9.75,9.75,0,0,0-.58-1.89,12.7,12.7,0,0,0-1.84-3.75l-.17-.22a21.88,21.88,0,0,0-3.56-3.17,2.77,2.77,0,0,0-.68-.28c-.48-.2-1-.4-1.44-.63a18,18,0,0,1-2.24-1.12c-.84-.56-1.6-.14-2.4,0a6.09,6.09,0,0,1-.95,0l-1,.83-.17-.1a.9.9,0,0,0,0-1.2,2.13,2.13,0,0,1-.34-1.13,14.36,14.36,0,0,0-1.2-5.17,16.14,16.14,0,0,0-1.25-2.82c-1-1.73-2.09-3.4-3.15-5.09a16.49,16.49,0,0,0-3.42-4.07,24.22,24.22,0,0,0-4-2.58c-.75-.4-1.54-.71-2.31-1.06l-.14-.06-.08-.05a3.33,3.33,0,0,0-.71-.44c-2-.67-3.88-1.45-5.87-1.92a23.38,23.38,0,0,0-7.28-.12,10.43,10.43,0,0,0-4.54,1.46c-1.23-1-4.05-3.33-5.27-4.16a7.7,7.7,0,0,0-4.1-1.45c-1.11,0-2.21-.44-3.32-.51-1.47-.09-3-.53-4.42.14a1.17,1.17,0,0,1-.64.07,2.89,2.89,0,0,0-2,.42c-.48.23-1,.42-1.45.66a8,8,0,0,1-1.47.77c-.66.16-1.19.34-1.25,1.18-.68-.32-1.08-.19-1.34.5-.09.26-.5.42-.78.62-.77.58-1.58,1.11-2.31,1.74s-1.23,1.21-1.87,1.85a1.5,1.5,0,0,1-1.49,1.75,4.79,4.79,0,0,1-.65,0,8.23,8.23,0,0,0-1.86,0c-2,.45-4.06,1-6.1,1.47a15,15,0,0,0-5.06,1.88c-.48.3-1,.61-1.43.9a15.93,15.93,0,0,0-5.58,6.28c-.52,1-1.37,2.08-.6,3.36,0,1.25,0,2.5,0,3.75,0,0-.08,0-.16.09-.09-.23-.17-.47-.26-.7a17.53,17.53,0,0,0,.21,2.06,15.83,15.83,0,0,0,1.8,4.8c.43.85.81,1.73,1.27,2.71a9.81,9.81,0,0,0-4.26,1.87c-.88.64-1.81,1.22-2.7,1.85A5.25,5.25,0,0,0,71.25,65,7.12,7.12,0,0,1,71,66,21.24,21.24,0,0,0,70,73.7a13.27,13.27,0,0,0,.92,4.19A8.17,8.17,0,0,0,72.54,81a1.09,1.09,0,0,1,.12,1.45,7.17,7.17,0,0,1-1.13,1.68,15.18,15.18,0,0,0-2.32,3.27,11,11,0,0,0-1.54,5.34,28.73,28.73,0,0,0,.11,3.07,18,18,0,0,0,1.6,6,1.58,1.58,0,0,0,.38.52,4.5,4.5,0,0,1,1.43,2.15,1.28,1.28,0,0,0,.33.45c.47.54,1,1.08,1.42,1.63a2.63,2.63,0,0,1,.48.68,3.77,3.77,0,0,0,2.29,2.29,3,3,0,0,1,.94.6c.65.59.64.85.13,1.6-1.07,1.61-2.19,3.2-3.17,4.86a14.4,14.4,0,0,0-2.14,9.77c.1.61.15,1.24.29,1.85a17.85,17.85,0,0,0,4.3,8,12,12,0,0,0,2.2,2,54.87,54.87,0,0,0,7.92,4.61c1.2.53,2.38,1.11,3.58,1.63A1.69,1.69,0,0,1,91,146.1a32.76,32.76,0,0,0,.84,4.59,12.08,12.08,0,0,0,2.31,4.47,21.15,21.15,0,0,0,11.05,7.34,13.16,13.16,0,0,0,5,.58l2.89-.26a13.21,13.21,0,0,0,6.38-2.27l1.72-1.14a10.55,10.55,0,0,1,.85,1.41,8.14,8.14,0,0,0,2.48,3.35,29.61,29.61,0,0,0,5,3.55,6.87,6.87,0,0,0,5.23.65l-1.59-.11a7.38,7.38,0,0,1,1.87-.11c.3,0,.59.18.89.23a2.38,2.38,0,0,0,.84,0,15.18,15.18,0,0,0,4.22-1.19,21.29,21.29,0,0,1,1.95-.89,13.48,13.48,0,0,0,6.06-4.53,7.13,7.13,0,0,1,1-.84,1.85,1.85,0,0,0,.45-.43c.29-.52.58-1,.83-1.58s.49-1.17.74-1.75l-.13-.06c-.1.09-.2.19-.44.39.15-.47.27-.78.35-1.1A5.7,5.7,0,0,0,152,155a1.63,1.63,0,0,1,.69-1.64,5.9,5.9,0,0,1,1.22-.1,22.26,22.26,0,0,1,2.58.37,2,2,0,0,0,1.6-.37l-1,0V153l1.15-.2a4.58,4.58,0,0,0,.83-.08,13.81,13.81,0,0,1,3.34-1,1.69,1.69,0,0,0,.58-.3c.29-.17.57-.37.87-.54a17.33,17.33,0,0,0,5.13-4.32,15.37,15.37,0,0,0,2.88-4.68,23.2,23.2,0,0,0,1.12-5.78c.05-.69,0-1.39,0-2.09H173l-.21,1.15a8.64,8.64,0,0,1-.17-2.07c0-.75,0-1.49,0-2.24,0-.9.15-1.8.16-2.7a1,1,0,0,1,.51-.91c1.48-.94,3-1.83,4.4-2.85a38,38,0,0,0,3.11-2.69,9.72,9.72,0,0,1,2.11-1.83,1.1,1.1,0,0,0,.6-1c0-.41.2-1,.49-1.15.57-.28.74-.79,1.07-1.21a13.89,13.89,0,0,0,1.16-1.52,30.14,30.14,0,0,0,2.14-5.68,1.54,1.54,0,0,0-.05-1.59C188,107.29,188,107.05,188.28,106.78Zm-6.85-17.35v0h0A0,0,0,0,0,181.43,89.43Zm3.43,4.28v0ZM157.42,35c.53.79,1.09,1.57,1.64,2.36-1.35-1.42-4-4.13-4.36-4.53l0,0A7,7,0,0,1,157.42,35Z"/><path d="M149.36,28.86l-.14-.06v0Z"/><path d="M150,30.12H150l0,0Z"/><path d="M158.56,38.27c-1-1.2.1.54.35,1A3.6,3.6,0,0,1,158.56,38.27Zm19.14,20s0,0,0-.06h-.05v0l.12.16Z"/><path class="cls-3" d="M184.86,93.69v0h0Zm-3.43-4.29v0a0,0,0,0,1,0,0Z"/><path class="cls-3" d="M181.44,89.41a0,0,0,0,0,0,0v0Z"/><path class="cls-3" d="M184.87,93.71h0v0Z"/><path d="M140.45,27.44a5.45,5.45,0,0,0-1.21,0,4.9,4.9,0,0,1,1.21,0l1.46.33Zm8.69,1.31.08.05v0Zm.81,1.33,0,0,0,0Z"/><polygon points="180.89 66.24 180.89 66.25 180.88 66.24 180.89 66.24"/><path d="M179.24,81.47a0,0,0,0,1,0,0h0Z"/><polygon points="180.9 66.25 180.9 66.26 180.89 66.25 180.9 66.25"/><polygon points="180.89 66.24 180.89 66.25 180.88 66.24 180.89 66.24"/><polygon points="180.9 66.25 180.9 66.26 180.89 66.25 180.9 66.25"/><path d="M182.39,65.71a.27.27,0,0,1-.07.08.21.21,0,0,0,.06-.08Z"/><path d="M181.44,89.41a0,0,0,0,0,0,0v0Z"/><path d="M184.87,93.71h0v0Z"/><path d="M185.25,95.05h0Z"/><path class="cls-2" d="M174.27,55.42c-.61,0-1.33-.58-2.52-1.94l.32-.14h0a10.65,10.65,0,0,0,1,.88A3.26,3.26,0,0,1,174.27,55.42Z"/><path d="M178.5,83.15a0,0,0,0,0,0,0h0Z"/><path d="M177.7,58.32l0,0v0h.05S177.7,58.3,177.7,58.32Z"/><path d="M186.74,110.7c-.1,0-.27-.07-.27-.1a1.24,1.24,0,0,1,.19-.61C186.69,110.23,186.71,110.47,186.74,110.7Z"/><path d="M186.76,110.71l0,0v0h0Z"/><path d="M184.87,93.71h0v0Z"/><path d="M181.44,89.41a0,0,0,0,0,0,0v0Z"/><path class="cls-4" d="M187.79,108.19a1.52,1.52,0,0,1-.31-1.13l0-3.55a12,12,0,0,0-1.26-6.41c-.13-.28-.28-.55-.42-.82s-.29-.55-.42-.83-.12-.26-.17-.39l-.36.26c1,1.71,1.76,3.73,1.7,4.58-.48-2.3-2-4.07-3.07-6.22-1.75-2.21-4.75-5.69-4.57-5.68a2.49,2.49,0,0,1-.4-.2,19.26,19.26,0,0,0-1.93-1c-.66-.28-.64-.2-1.15.33a4,4,0,0,1-1.33,1c-1.3.52-2.64.94-4,1.41a2.55,2.55,0,0,1-1.42.05q-.09-.5-.15-1l1.49-.22a6.4,6.4,0,0,0,2.39-.74c.64-.36,1.34-.58,2-1a8.89,8.89,0,0,0,4-5.94,1.65,1.65,0,0,1,.11-.45,10.93,10.93,0,0,0,1-3.5,30.1,30.1,0,0,0,.67-4.81c.06-1,.11-2.11.18-3.16,0-.21.12-.41.15-.62s0-.38,0-.43c-.77-.49-.66-1.31-.67-2a8.85,8.85,0,0,0-1.12-3.72,9.29,9.29,0,0,0-1.52-2.45,1.81,1.81,0,0,1-.39-1.37c.56,1,1.57,1.58,2,2.74a36.94,36.94,0,0,1,1.85,4.89.72.72,0,0,0,.09.2l.1.15,0,0h0a3.31,3.31,0,0,0-.23-1.89c-.24-.74-.53-1.46-.75-2.22l.15.18c-.6-.8-1.65-2.93-2.3-3.89l-.12-.16v0c-.09-.1-.2-.2-.21-.3-.05-1-.88-1.35-1.45-1.93a10,10,0,0,0-3-2.28l-.9-.4a10.65,10.65,0,0,0,1,.88,3.26,3.26,0,0,1,1.16,1.2c-.61,0-1.33-.58-2.52-1.94l.32-.14h0c-.14-.15-.25-.36-.43-.45-1.67-.86-3.39-1.45-5.27-.67a3.35,3.35,0,0,1-.53.19,1.59,1.59,0,0,0-.87.47,2.16,2.16,0,0,0-.21.29h0a3.17,3.17,0,0,0-.16.37l-.09.29a15.8,15.8,0,0,1-1.47,3,4.34,4.34,0,0,1-.58.84c-.1.11-.31.13-.47.2l-.15-.15c.16-.47.28-.95.48-1.39.31-.68.75-1.3,1-2a5.76,5.76,0,0,0,.42-3.18c-.24-1.1-.39-2.21-.65-3.3a12.29,12.29,0,0,0-.65-1.65,36.56,36.56,0,0,0-2.78-5.82c-.24-.37-.49-.73-.71-1.1l0,0c-.25-.43-1.35-2.17-.35-1l.31.36s0,0,0,0a7.69,7.69,0,0,0,1,.92A3,3,0,0,1,161,41.86c.65-.06.78.44.9,1s.29,1.15.44,1.72a1,1,0,0,0,.86.74c-.09-.28-.14-.47-.21-.66a5.25,5.25,0,0,1-.28-.59,22.65,22.65,0,0,0-3.34-6.25h0c-1.16-1-4.2-4-4.48-4.25l0,0a20.49,20.49,0,0,0-4.31-3c-.2-.12-.37-.29-.56-.43H150l0,0c-1.23-.41-2.44-.86-3.69-1.21-1.44-.39-2.89-.75-4.35-1.09l-1.46-.33a4.9,4.9,0,0,0-1.21,0,2.05,2.05,0,0,1-1.57-.46.69.69,0,0,0-.66-.08,3.53,3.53,0,0,1-2.42.53,3.38,3.38,0,0,0-2.49,1.11,2.77,2.77,0,0,0-.29.4,1.2,1.2,0,0,1,0,1.58c.3.23.49.5.73.55a1.3,1.3,0,0,1,.95,1.05c.27,1,.52,1.93.79,2.89a1.12,1.12,0,0,1-.28,1.12.5.5,0,0,1-.9-.1.7.7,0,0,1-.1-.36,3.71,3.71,0,0,0-.85-2.23,3.82,3.82,0,0,1-.35-.66,14.77,14.77,0,0,0-3.57-5.87s-1-.68-1.87-1.37c-.55-.4-1.1-.81-1.43-1.07a10.83,10.83,0,0,0-3.52-1.7,19.8,19.8,0,0,0-5-1,10.46,10.46,0,0,0-4.62,1,12,12,0,0,0-1.62,1.08c-1.88,1.16-3.85,2.2-5.65,3.47A32.37,32.37,0,0,0,101,30.59,4.26,4.26,0,0,0,100,34a22.69,22.69,0,0,0,.38,3.05,2.68,2.68,0,0,1,.07.27c0,.31-.05.62-.39.61a.67.67,0,0,1-.51-.4,24.34,24.34,0,0,1-.67-2.9c-.16-1-.11-1-1.12-1.24a14.9,14.9,0,0,0-4.94-.07,2.8,2.8,0,0,0-1.07.3,21.78,21.78,0,0,1-4.12,1.55,15.14,15.14,0,0,0-2.33.94,17.67,17.67,0,0,0-3.92,3.3,8.92,8.92,0,0,0-2.38,4,10.3,10.3,0,0,0-.32,5.45c.22.85.38,1.71.56,2.56a.62.62,0,0,1,0,.18c-.23,1.57.71,2.73,1.39,4,.34.6.73,1.17,1.07,1.77a1.32,1.32,0,0,0,1.2.73c1.5.06,3,.12,4.49.23a13.12,13.12,0,0,1,1.75.32c.27.06.49.25.39.53s-.32.43-.49.43c-.85,0-1.69,0-2.53,0-1.12-.07-2.24-.18-3.38-.28-.1.22-.21.43-.32.64-.13,0-.25,0-.3-.09a1.38,1.38,0,0,0-1.2-.4,9.37,9.37,0,0,0-3.51.92c-.57.31-1.22.49-1.79.81A13,13,0,0,0,72.67,64a5.25,5.25,0,0,0-.84,2c-.35,1.13-.63,2.29-.93,3.43a.63.63,0,0,0,0,.19c.08,1.74-.38,3.48,0,5.22A7.91,7.91,0,0,0,72,77.67L72,77.39a2.12,2.12,0,0,0,.82.75l.14.18a.48.48,0,0,1,.09.26c0,1.5,1,2.5,1.88,3.54a12.08,12.08,0,0,1,1,1.44.54.54,0,0,1-.07.49.58.58,0,0,1-.51.08,5.38,5.38,0,0,1-.64-.54c-.63-.48-.89-.48-1.46.07a14.25,14.25,0,0,0-2.9,4.11c-.54,1.12-1,2.3-1.44,3.46a7.54,7.54,0,0,0,0,3.89,22.28,22.28,0,0,0,.47,2.67,6,6,0,0,0,.6,1.46c1.17,2.1,2.33,4.2,3.55,6.27a7.22,7.22,0,0,0,2.33,2.27c.7.47,1.35,1,2,1.48.52.34,1.08.62,1.62.93l2.91,1.63a5.85,5.85,0,0,0-1.79,1l-1.89-.93c-.62.74-1.38,1.53-2,2.42a13.74,13.74,0,0,0-2,4.21c-.39,1.47-1,2.9-1.42,4.36a5.15,5.15,0,0,0,0,2.78c.11.45.21.91.28,1.38a12,12,0,0,0,1.64,4l1,1.81c.07.14.22.29.2.42-.13.86.5,1.3,1,1.78,1.12,1,2.28,2,3.38,3.1a13.1,13.1,0,0,0,3,2.1A29.44,29.44,0,0,0,90.33,143a3.52,3.52,0,0,0,.36.07l2-3.68c.79.41.81.46.45,1.09a9.36,9.36,0,0,0-1.07,6.74,17,17,0,0,0,4.8,8.83c.51.5,1.06,1,1.61,1.43a3.4,3.4,0,0,0,.86.55c2.13.89,4.25,1.77,6.39,2.61a3.46,3.46,0,0,0,1.2.18,29.09,29.09,0,0,0,9.45-1.11,20.15,20.15,0,0,0,4.06-1.63,2.24,2.24,0,0,1,.53-.2c.58-.15.8,0,.9.59.46,2.89,2.21,4.89,4.45,6.57.47.36.94.72,1.43,1.06a9.89,9.89,0,0,0,4.8,1.67,10.76,10.76,0,0,0,3.57-.62c.66-.16,1.32-.37,2-.53a5.12,5.12,0,0,0,.54-.1l.38-.07a12,12,0,0,0,5.15-1.89,21.55,21.55,0,0,0,4.07-3,2.26,2.26,0,0,0,.28-.25,12.62,12.62,0,0,0,2.53-6.35c.1-1.56.16-3.12.24-4.67a7.85,7.85,0,0,0,0-.84c0-.48.19-.79.58-.77s.46.32.44.67c0,.68,0,1.37-.07,2.06s0,.93.86.9c.6,0,1.19-.08,1.78-.13,1.09-.09,2.18-.14,3.26-.29a12.22,12.22,0,0,0,6.17-3.18,36.14,36.14,0,0,0,5.84-6.56,6.24,6.24,0,0,0,1.16-3.59c0-.78.11-1.56.08-2.34a55.84,55.84,0,0,0-.52-8.76,28,28,0,0,1-.43-3.15,7,7,0,0,1,.1-1.77c.12-.65.42-.73,1-.41.24.12.5.21.68.29l.11-.11a2.63,2.63,0,0,0,.49,1.21v.86a2.27,2.27,0,0,1,.37-.08,1.23,1.23,0,0,1,.29,0c-.16.58-.34,1.09-1.06,1.21a3.62,3.62,0,0,1,0-2.3l-.71-.57a9.1,9.1,0,0,0,.13,2.67c0,.87.14,1.74.19,2.61s0,1.79.16,2.7a3.55,3.55,0,0,0,.3-1.84,10.55,10.55,0,0,0-.08-1.49,1.28,1.28,0,0,1,.93-1.44,13.15,13.15,0,0,0,4.67-3.31c.76-.78,1.6-1.49,2.38-2.25.44-.43.83-.92,1.27-1.36a5.75,5.75,0,0,1,.85-.52,9.16,9.16,0,0,1,1.55-2.15,9,9,0,0,0,1.81-3.44,3.19,3.19,0,0,1,.33-.7l.23,0-.07,1.21c.33-.57.71-1.1.19-1.79-.13-.17.09-.62.15-.94l0,0v0c-.1,0-.27-.07-.27-.1a1.24,1.24,0,0,1,.19-.61c0,.24.05.48.08.71h0a1.89,1.89,0,0,0,.14-1.58c-.09-.21,0-.51,0-.76l.2,0c.12.26.23.52.39.86.15-.12.35-.21.37-.33A.91.91,0,0,0,187.79,108.19Zm-6.51-15.32-.67-1c-.06-.07-.17-.12-.2-.2a3,3,0,0,0-1.53-1.88.68.68,0,0,1-.21-1,8.66,8.66,0,0,1,3.74,4.4Zm3.32,5.5a.71.71,0,0,1-.57-.32,18.16,18.16,0,0,1-.68-1.72l.52,0-1-1.84.14-.12a3.1,3.1,0,0,1,.6.6c.46.91.87,1.85,1.29,2.78C185,98,184.93,98.31,184.6,98.37Z"/><path class="cls-2" d="M184.6,98.37a.71.71,0,0,1-.57-.32,18.16,18.16,0,0,1-.68-1.72l.52,0-1-1.84.14-.12a3.1,3.1,0,0,1,.6.6c.46.91.87,1.85,1.29,2.78C185,98,184.93,98.31,184.6,98.37Z"/><path class="cls-2" d="M182.41,93.23l-1.13-.36-.67-1c-.06-.07-.17-.12-.2-.2a3,3,0,0,0-1.53-1.88.68.68,0,0,1-.21-1A8.66,8.66,0,0,1,182.41,93.23Z"/><path d="M149.36,28.86l-.14-.06-.08-.05.09,0Z"/><path d="M150,30.12H150l0,0h0Z"/><path d="M178.5,83.15a0,0,0,0,0,0,0l0,0v0Z"/><path d="M179.24,81.47a0,0,0,0,1,0,0h0Z"/></g><g id="Text"><path class="cls-5" d="M110.74,98.6a.81.81,0,0,0-.63-.25c-.11,0-.26.3-.3.48s0,.51,0,.75a1.78,1.78,0,0,1-1.11,1.49c-.64.26-1-.08-1.52-.4-1.45-1-1.87-2.59-2.41-3.88.72-1.12,1.37-2.07,1.93-3.07A4.61,4.61,0,0,0,107,90a3.49,3.49,0,0,0-1.93-2.39A8.56,8.56,0,0,0,99.83,87c-2,.4-3.93,1-5.86,1.58a4.64,4.64,0,0,0-1.42.89.75.75,0,0,0,0,1.09c.27.31.56.21.84,0l.77-.49c.44,1.39.9,2.64,1.24,3.93.65,2.5,1.23,5,1.85,7.53.2.81.44,1.6.65,2.38a1.15,1.15,0,0,1-.23.14c-.62.24-.76.44-.6.81a.82.82,0,0,0,1.15.43,10.44,10.44,0,0,1,4-1.41.53.53,0,0,0,.52-.56.59.59,0,0,0-.59-.61c-.3,0-.61,0-.94,0L100.06,99l2.17-1.09c.41.88.74,1.76,1.21,2.55a4.28,4.28,0,0,0,7.23.45A1.84,1.84,0,0,0,110.74,98.6Zm-8-2.34c-.65.3-1.24.73-1.87,1.07a9.24,9.24,0,0,1-1.09.39c-.67-3.11-1.3-6-2-9a8.63,8.63,0,0,1,6.34,0,2.36,2.36,0,0,1,1.41,1.72,3.84,3.84,0,0,1-.07,2.3A5.72,5.72,0,0,1,102.72,96.26Z"/><path class="cls-5" d="M147.66,99.23a3.69,3.69,0,0,0-5.12,2.78,8.79,8.79,0,0,0,0,2,21.27,21.27,0,0,0,1.19,5.28s0,.11-.08.22c-.37.07-.77.13-1.15.23s-.58.29-.49.67a.52.52,0,0,0,.64.41c.48-.05,1-.13,1.47-.2.58,2.08,1.14,4.14,1.71,6.21a2.47,2.47,0,0,1-.41.22c-.33.12-.55.31-.43.7s.45.48.9.38a14.1,14.1,0,0,0,3.64-1.44c.19-.1.3-.34.44-.52a2.12,2.12,0,0,0-.63-.47,3.9,3.9,0,0,0-1,0,45.42,45.42,0,0,1-1.94-6l1.13-.34a5.71,5.71,0,0,0,1.14-.4.68.68,0,0,0,.26-.61c0-.15-.35-.28-.56-.33a1.35,1.35,0,0,0-.55.09l-1.65.43a16.47,16.47,0,0,1-.87-5.75,3.28,3.28,0,0,1,1.56-2.62c.81.58,1.86.86,2.32,1.89.16.35.36.61.79.45s.39-.41.16-1A4.18,4.18,0,0,0,147.66,99.23Z"/><path class="cls-5" d="M123.58,70.21a3,3,0,0,0-.84,0c-.08-.24-.16-.44-.23-.65-.28-.89-.5-1.81-.86-2.66a5.81,5.81,0,0,0-2.71-3.22,2.77,2.77,0,0,0-3.84,1.37l-.47,1c-.1-.28-.16-.42-.2-.56l-1.59-5.47c-.3-1-.42-1.07-1.45-1a4.77,4.77,0,0,0-2.29,1c-.17.11-.36.47-.29.58a1,1,0,0,0,.62.45,1.9,1.9,0,0,0,.73-.12l3.77,12a1.75,1.75,0,0,0-.49.22c-.16.16-.43.44-.38.53a1.51,1.51,0,0,0,.59.49.47.47,0,0,0,.37,0c1-.29,2.09-.58,3.12-.93a.68.68,0,0,0,.38-.54,1.1,1.1,0,0,0-.44-.63,1.66,1.66,0,0,0-.65-.13c-.37-1.18-.74-2.34-1.1-3.5a.9.9,0,0,1,0-.46c.21-.72.38-1.45.65-2.14a1.72,1.72,0,0,1,2.87-.79,4.18,4.18,0,0,1,1.49,1.89c.48,1.24.89,2.52,1.34,3.84a3.58,3.58,0,0,0-.61.32c-.14.13-.35.39-.31.48a1.17,1.17,0,0,0,.53.45c.12.06.31,0,.46,0l1.62-.44a1,1,0,0,0,.5-.24.93.93,0,0,0,.22-.64A.8.8,0,0,0,123.58,70.21Z"/><path class="cls-5" d="M112.7,89.69a2,2,0,0,0,2.09-2,1.79,1.79,0,0,0-1.92-1.62,1.9,1.9,0,0,0-1.75,1.74A1.83,1.83,0,0,0,112.7,89.69Z"/><path class="cls-5" d="M113.71,99.7c.05.34.38.46.92.38l.18,0c1.2-.32,2.41-.63,3.61-1,.37-.1.86-.14.86-.68s-.44-.6-.87-.62c0,0-.11,0-.22-.09-.26-.65-.53-1.24-.74-1.86-.48-1.38-.93-2.77-1.4-4.16a4.35,4.35,0,0,0-.25-.59.69.69,0,0,0-.87-.37c-1.19.37-2.38.74-3.55,1.15a.5.5,0,0,0,.08.94,1.9,1.9,0,0,0,.82,0,7.07,7.07,0,0,0,.83-.22l2.2,6.13c-.41.16-.69.28-1,.38S113.63,99.22,113.71,99.7Z"/><path class="cls-5" d="M128.45,105.62a4.93,4.93,0,0,1-3.07-1.2C126,105.76,127.23,105.73,128.45,105.62Z"/><path class="cls-5" d="M159.73,114c.32-.16.53-.44.36-.76s-.42-.29-.66-.36a1.65,1.65,0,0,0-.61.12l-2-6.25c.42-.13.8-.21,1.17-.35a3.83,3.83,0,0,0,.86-.49c.11-.09.19-.42.13-.48a.83.83,0,0,0-.55-.23,3.91,3.91,0,0,0-.71.23l-1.21.33a30.09,30.09,0,0,1-1.27-6.3,3.62,3.62,0,0,1,.24-1.46.77.77,0,0,1,1.38-.3,5.09,5.09,0,0,1,.61.71c.34.45.66.91,1,1.38.2.3.46.46.78.27s.24-.54.07-.82a14.87,14.87,0,0,0-.87-1.44,4.15,4.15,0,0,0-1.85-1.67,3.43,3.43,0,0,0-4.63,3.53,19.71,19.71,0,0,0,1.59,7.08s0,.11-.08.21a6.93,6.93,0,0,0-.7.16,3.13,3.13,0,0,0-.88.28c-.16.11-.34.45-.28.59s.37.29.59.33.35-.1.53-.14l1.06-.27c.12.14.15.16.16.19.44,1.88.88,3.75,1.3,5.63a.62.62,0,0,1-.17.48c-.24.22-.38.5-.17.72a.89.89,0,0,0,.75.21c1.21-.28,2.41-.62,3.61-.94A2.92,2.92,0,0,0,159.73,114Z"/><path class="cls-5" d="M107.38,63.2l.06.07a.67.67,0,0,0,.84.18.55.55,0,0,0,.22-.81c-.87-1.7-1-2-2.82-1.4l-.18.07-3.9,1.27c-1.48.49-3,1-4.43,1.49-.69.24-.71.34-.65,1s.1,1.37.17,2a.59.59,0,0,0,.27.43.73.73,0,0,0,.6-.06.79.79,0,0,0,.18-.59c0-.62-.09-1.23-.15-1.91.91-.26,1.74-.48,2.66-.73l3.66,11.3c-.26.09-.47.15-.67.23s-.66.31-.49.75a.63.63,0,0,0,.85.36c.39-.11.77-.24,1.17-.33,1.51-.35,3-.68,4.55-1,.64-.15.92-.42.84-.8s-.51-.69-1.13-.49c-.43.14-.88.24-1.39.38-1.51-3.74-2.4-7.63-3.85-11.51.65-.22,1.16-.37,1.64-.56C106.24,62.29,107,62.1,107.38,63.2Z"/><path class="cls-5" d="M131.87,100.8c-.4-2.56-.86-5.1-1.33-7.64a17.86,17.86,0,0,0-1.33-4.38c-.26-.55-.43-1.14-.65-1.74a2.76,2.76,0,0,0,.66-.29.92.92,0,0,0,.4-.55c0-.33-.3-.44-.59-.46a1.75,1.75,0,0,0-.56.06l-2.32.71c-.26.09-.54.15-.8.24s-.56.17-.56.54.33.48.64.55a4.5,4.5,0,0,0,.51.08v.49c-.18-.06-.33-.09-.46-.15-2.53-1-4.71,1.16-5,3.19a6,6,0,0,0,1,4.26A3,3,0,0,0,125,97c1.31-.46,2.58-1,3.1-2.54a2.78,2.78,0,0,1,.23.34c.38,1.55.81,3.08,1.12,4.64.22,1,.28,2.1.4,3.16a1.08,1.08,0,0,1-.39,1.09,2.52,2.52,0,0,1-3-.43,12.18,12.18,0,0,1-1.19-1.88c-.25-.45-.56-.67-.94-.49s-.3.56-.22.89a5.1,5.1,0,0,0,2.69,3.06,3.05,3.05,0,0,0,1.44.33A3.8,3.8,0,0,0,131.87,100.8Zm-4.74-6.91a3.52,3.52,0,0,1-3.06,2.23,1.82,1.82,0,0,1-1.42-.6,4.93,4.93,0,0,1-1.15-3.14,3.2,3.2,0,0,1,1.65-2.89,1.61,1.61,0,0,1,1.33-.27,6.31,6.31,0,0,1,1.49.54,2.33,2.33,0,0,1,.81.84,9.8,9.8,0,0,1,.55,1.29A2.77,2.77,0,0,1,127.13,93.89Z"/><path class="cls-5" d="M132.62,65.52c-.54,0-.56.43-.54.81a2.51,2.51,0,0,1-2.2,2.43.78.78,0,0,1-.94-.35,9.32,9.32,0,0,1-1.13-2.83,9.79,9.79,0,0,1,1-.36c1-.24,2-.44,3-.69.57-.15.7-.33.59-.87a5.38,5.38,0,0,0-3.18-4.13,2.41,2.41,0,0,0-2.56.36A4.31,4.31,0,0,0,125,62.53a10.43,10.43,0,0,0,.13,4.27,5.29,5.29,0,0,0,1.27,2.35,2,2,0,0,0,1.45.75c.41,0,.81.09,1.22.11a4.14,4.14,0,0,0,3.26-1.38,3.2,3.2,0,0,0,.89-2.21C133.23,65.81,133,65.51,132.62,65.52Zm-3.76-4.84a2.59,2.59,0,0,1,1.48,1.22c.26.52.5,1.06.76,1.6-1.14.7-2.37.56-3.63,1,0-1-.15-1.93-.12-2.85S128,60.37,128.86,60.68Z"/><path class="cls-5" d="M142,82.31c0,.32.21.51.53.51a6.9,6.9,0,0,0,1-.06,8.15,8.15,0,0,0,.82-.2,1.29,1.29,0,0,1,.2.25,4.85,4.85,0,0,1,.16.63,12.23,12.23,0,0,0,1.85,4.76,4.86,4.86,0,0,0,1.89,1.9,2.91,2.91,0,0,0,4.35-2.6,5.48,5.48,0,0,0-.2-1.19c-.2-.75-.45-1-.74-.87-.46.28-.21.68-.15,1.08a4.81,4.81,0,0,1,0,1.56c-.13.63-.53.78-1.12.55a3.9,3.9,0,0,1-1.86-1.77,10.59,10.59,0,0,1-1.2-3.62c-.1-.5-.18-1-.28-1.59.59-.11,1.08-.21,1.57-.28.67-.1,1-.32,1-.67s-.38-.46-1.11-.37c-.52.07-1,.16-1.59.25-.05-.25-.1-.43-.13-.61-.19-1-.36-2.08-.56-3.11-.14-.74-.53-.86-1.09-.35-.28.25-.48.64-.8.78-.89.41-.87,1.08-.71,1.88s.23,1.52.35,2.33c-.64.11-1.2.17-1.73.31A.71.71,0,0,0,142,82.31Z"/><path class="cls-5" d="M135.53,85.13a10.54,10.54,0,0,0-.56,1.19c-.28-1.06-.53-2-.79-2.91-.44-1.59-.89-3.18-1.32-4.77a3.32,3.32,0,0,1-.11-.83c0-.66-.25-.89-.9-.8a10.73,10.73,0,0,0-1.37.28c-.49.12-1,.28-1.43.43a.51.51,0,0,0-.33.69c.09.35.38.39.67.33a6,6,0,0,0,.7-.25c.29.91.55,1.77.83,2.62.44,1.37.94,2.72,1.33,4.1.55,1.92,1,3.86,1.51,5.79.2.78.43,1.55.64,2.32-.2.16-.4.25-.47.4a1.1,1.1,0,0,0-.2.73c.11.33.44.24.73.16l1.71-.43c.55-.14,1.09-.27,1.62-.46a.6.6,0,0,0,.31-.48.66.66,0,0,0-.42-.41,2.93,2.93,0,0,0-.81,0c-.35-1-.71-2-1-3A4.49,4.49,0,0,1,136,87a4.8,4.8,0,0,1,.9-1.5c.44-.52,1.36-.64,1.67-.27a9.84,9.84,0,0,1,1.48,2,16,16,0,0,1,1.13,4.33,1.85,1.85,0,0,0-.51.29c-.13.14-.27.41-.21.53a.6.6,0,0,0,.52.24c.8-.26,1.58-.55,2.35-.87a.6.6,0,0,0,.19-.55c-.05-.15-.32-.28-.5-.3a2.53,2.53,0,0,0-.74.15c-.22-.7-.4-1.32-.6-1.94-.4-1.22-.78-2.44-1.21-3.64a2.2,2.2,0,0,0-2.12-1.57A3,3,0,0,0,135.53,85.13Z"/><path class="cls-5" d="M129.06,113.4a.71.71,0,0,0-.3.6.73.73,0,0,0,.5.45,3.56,3.56,0,0,0,1,0c.37,1,.71,2,1.12,2.94a17.22,17.22,0,0,0,1.24,2.51,3.34,3.34,0,0,0,5.54.26,7.68,7.68,0,0,0,.56-.75,9.18,9.18,0,0,0,.45-1c.12.49.17.81.27,1.12.2.63.43.74,1,.53s1.17-.43,1.75-.67.72-.81.13-1.17a1.33,1.33,0,0,1-.62-.87c-.13-.48-.3-.95-.46-1.42a26,26,0,0,1-1-4.36,2.76,2.76,0,0,0,.67-.4.78.78,0,0,0,.2-.64.7.7,0,0,0-.6-.29c-.93.25-1.85.54-2.75.87a.94.94,0,0,0-.55,1.16c.07.47.2.92.25,1.39a31.4,31.4,0,0,1,.32,3.62,2.74,2.74,0,0,1-2.23,2.76,1.2,1.2,0,0,1-.94-.15,7.6,7.6,0,0,1-2.19-3.1c-.35-1.09-.76-2.17-1.12-3.26-.14-.43-.4-.66-.82-.58A6.35,6.35,0,0,0,129.06,113.4Z"/><path class="cls-5" d="M130.13,122.58c.13-.08.28-.35.23-.45a.64.64,0,0,0-.45-.37,5.11,5.11,0,0,0-1.08.22c-.52-2-1-3.89-1.52-5.82-.7-2.81-1.35-5.63-2-8.45-.24-1-.64-1.17-1.57-.85s-2,.74-3.06,1.12c-.31.11-.61.26-.52.66s.4.41.74.36l1-.13c1.29,4.74,2.56,9.38,3.83,14l-.63.27c-.36.16-.58.42-.41.81s.5.25.79.12a21.46,21.46,0,0,1,3.82-1.21A3.56,3.56,0,0,0,130.13,122.58Z"/><path class="cls-5" d="M118.92,117.72a1.29,1.29,0,0,0-.55,0l-3.62,1a25,25,0,0,1-2.16-7c.85-.34,1.62-.68,2.41-1a19.25,19.25,0,0,1,2-.6c.9-.22,1.07-.11,1.43.73.06.14.07.35.17.42a1,1,0,0,0,.62.22c.12,0,.31-.38.26-.51a7.76,7.76,0,0,0-.94-1.89c-.39-.49-1,0-1.5,0a2.59,2.59,0,0,0-.45.14L112,110.92c-1.47.5-2.95,1-4.43,1.47-.36.11-.57.29-.47.66s.43.41.76.33a5.52,5.52,0,0,0,.53-.18l.59-.17,4.32,13.82a1.12,1.12,0,0,1-.22.16c-.31.13-.48.39-.3.66a.85.85,0,0,0,.69.3c.88-.17,1.76-.4,2.62-.64.6-.17,1.18-.39,1.77-.6a.57.57,0,0,0-.29-1.09c-.21,0-.42.06-.69.11-.57-1.9-1.14-3.76-1.74-5.75,1.08-.4,2.13-.77,3.17-1.17a2.92,2.92,0,0,0,.88-.49A.36.36,0,0,0,118.92,117.72Z"/><path d="M110.74,98.6a.81.81,0,0,0-.63-.25c-.11,0-.26.3-.3.48s0,.51,0,.75a1.78,1.78,0,0,1-1.11,1.49c-.64.26-1-.08-1.52-.4-1.45-1-1.87-2.59-2.41-3.88.72-1.12,1.37-2.07,1.93-3.07A4.61,4.61,0,0,0,107,90a3.49,3.49,0,0,0-1.93-2.39A8.56,8.56,0,0,0,99.83,87c-2,.4-3.93,1-5.86,1.58a4.64,4.64,0,0,0-1.42.89.75.75,0,0,0,0,1.09c.27.31.56.21.84,0l.77-.49c.44,1.39.9,2.64,1.24,3.93.65,2.5,1.23,5,1.85,7.53.2.81.44,1.6.65,2.38a1.15,1.15,0,0,1-.23.14c-.62.24-.76.44-.6.81a.82.82,0,0,0,1.15.43,10.44,10.44,0,0,1,4-1.41.53.53,0,0,0,.52-.56.59.59,0,0,0-.59-.61c-.3,0-.61,0-.94,0L100.06,99l2.17-1.09c.41.88.74,1.76,1.21,2.55a4.28,4.28,0,0,0,7.23.45A1.84,1.84,0,0,0,110.74,98.6Zm-11.55,4.94c-.18-.63-.33-1.19-.5-1.75-.33-1.1-.7-2.19-1-3.3-.24-.86-.36-1.77-.6-2.63-.61-2.12-1.25-4.23-1.92-6.48L96.81,89c.09.31.18.57.23.83.35,1.84.69,3.67,1,5.51.1.55.18,1.1.23,1.66.19,2,1.06,3.84,1.51,5.77,0,.15.07.3.12.52Zm3.53-7.28c-.65.3-1.24.73-1.87,1.07a9.24,9.24,0,0,1-1.09.39c-.67-3.11-1.3-6-2-9a8.63,8.63,0,0,1,6.34,0,2.36,2.36,0,0,1,1.41,1.72,3.84,3.84,0,0,1-.07,2.3A5.72,5.72,0,0,1,102.72,96.26Zm3.29,5.09a5.64,5.64,0,0,1-.77-.5,6.17,6.17,0,0,1-1.75-3.11c0-.14.07-.32.11-.48.86,1.39,1.11,3,2.55,3.92C106.1,101.24,106.06,101.3,106,101.35Z"/><path d="M131.87,100.8c-.4-2.56-.86-5.1-1.33-7.64a17.86,17.86,0,0,0-1.33-4.38c-.26-.55-.43-1.14-.65-1.74a2.76,2.76,0,0,0,.66-.29.92.92,0,0,0,.4-.55c0-.33-.3-.44-.59-.46a1.75,1.75,0,0,0-.56.06l-2.32.71c-.26.09-.54.15-.8.24s-.56.17-.56.54.33.48.64.55a4.5,4.5,0,0,0,.51.08v.49c-.18-.06-.33-.09-.46-.15-2.53-1-4.71,1.16-5,3.19a6,6,0,0,0,1,4.26A3,3,0,0,0,125,97c1.31-.46,2.58-1,3.1-2.54a2.78,2.78,0,0,1,.23.34c.38,1.55.81,3.08,1.12,4.64.22,1,.28,2.1.4,3.16a1.08,1.08,0,0,1-.39,1.09,2.52,2.52,0,0,1-3-.43,12.18,12.18,0,0,1-1.19-1.88c-.25-.45-.56-.67-.94-.49s-.3.56-.22.89a5.1,5.1,0,0,0,2.69,3.06,3.05,3.05,0,0,0,1.44.33A3.8,3.8,0,0,0,131.87,100.8Zm-4.74-6.91a3.52,3.52,0,0,1-3.06,2.23,1.82,1.82,0,0,1-1.42-.6,4.93,4.93,0,0,1-1.15-3.14,3.2,3.2,0,0,1,1.65-2.89,1.61,1.61,0,0,1,1.33-.27,6.31,6.31,0,0,1,1.49.54,2.33,2.33,0,0,1,.81.84,9.8,9.8,0,0,1,.55,1.29A2.77,2.77,0,0,1,127.13,93.89Zm3.6,6.33v-.71s0-.06,0-.09,0,0,0,0a1.66,1.66,0,0,1-.25-.42c-.33-1.39-.58-2.8-1-4.17-.66-2.23-1.44-4.43-2.16-6.64-.08-.26-.39-.56.13-.8.27.66.51,1.33.83,2a20.7,20.7,0,0,1,1.64,5.82c.16,1,.4,2,.6,2.92.09.44.14.9.2,1.34l0,0v.11c0,.23.05.46.08.7Z"/><path d="M114.75,118.8l3.62-1a1.29,1.29,0,0,1,.55,0,.36.36,0,0,1,.23.62,2.92,2.92,0,0,1-.88.49c-1,.4-2.09.77-3.17,1.17.6,2,1.17,3.85,1.74,5.75.27,0,.48-.09.69-.11a.57.57,0,0,1,.29,1.09c-.59.21-1.17.43-1.77.6-.86.24-1.74.47-2.62.64a.85.85,0,0,1-.69-.3c-.18-.27,0-.53.3-.66a1.12,1.12,0,0,0,.22-.16L108.94,113l-.59.17a5.52,5.52,0,0,1-.53.18c-.33.08-.66.06-.76-.33s.11-.55.47-.66c1.48-.47,3-1,4.43-1.47l4.59-1.57a2.59,2.59,0,0,1,.45-.14c.5-.06,1.11-.5,1.5,0a7.76,7.76,0,0,1,.94,1.89c0,.13-.14.5-.26.51a1,1,0,0,1-.62-.22c-.1-.07-.11-.28-.17-.42-.36-.84-.53-.95-1.43-.73a19.25,19.25,0,0,0-2,.6c-.79.29-1.56.63-2.41,1A25,25,0,0,0,114.75,118.8Zm.74,7.41a88.08,88.08,0,0,1-4.42-14l-1,.38c.36,1.27.67,2.51,1.06,3.72.76,2.33,1.57,4.65,2.36,7,.28.82.56,1.65.86,2.47C114.57,126.36,114.58,126.36,115.49,126.21Z"/><path d="M153.73,107.88l-1.06.27c-.18,0-.37.18-.53.14s-.53-.16-.59-.33.12-.48.28-.59a3.13,3.13,0,0,1,.88-.28,6.93,6.93,0,0,1,.7-.16c0-.1.09-.17.08-.21a19.71,19.71,0,0,1-1.59-7.08,3.43,3.43,0,0,1,4.63-3.53,4.15,4.15,0,0,1,1.85,1.67,14.87,14.87,0,0,1,.87,1.44c.17.28.28.6-.07.82s-.58,0-.78-.27c-.31-.46-.63-.93-1-1.38a5.09,5.09,0,0,0-.61-.71.77.77,0,0,0-1.38.3,3.62,3.62,0,0,0-.24,1.46,30.09,30.09,0,0,0,1.27,6.3l1.21-.33a3.22,3.22,0,0,1,.71-.22.77.77,0,0,1,.55.22c.06.06,0,.39-.13.48a3.83,3.83,0,0,1-.86.49c-.37.14-.75.22-1.17.35l2,6.25a1.65,1.65,0,0,1,.61-.12c.24.07.56.17.66.36s0,.6-.36.76a2.92,2.92,0,0,1-.52.19c-1.2.32-2.4.66-3.61.94a.89.89,0,0,1-.75-.21c-.21-.22-.07-.5.17-.72a.62.62,0,0,0,.17-.48c-.42-1.88-.86-3.75-1.3-5.63C153.88,108,153.85,108,153.73,107.88Zm.89-10.69a3,3,0,0,0-1.41,2.86,20.6,20.6,0,0,0,1.51,6.22c.09.29.28.54.36.82s.12.8.22,1.19c.41,1.53.83,3.06,1.24,4.59.19.72.22.74,1.05.36-.53-1.84-1-3.72-1.64-5.51a34.82,34.82,0,0,1-1.67-7.25A5.23,5.23,0,0,1,154.62,97.19Z"/><path d="M142.25,91.08a2.53,2.53,0,0,1,.74-.15c.18,0,.45.15.5.3a.6.6,0,0,1-.19.55c-.77.32-1.55.61-2.35.87a.6.6,0,0,1-.52-.24c-.06-.12.08-.39.21-.53a1.85,1.85,0,0,1,.51-.29A16,16,0,0,0,140,87.26a9.84,9.84,0,0,0-1.48-2c-.31-.37-1.23-.25-1.67.27A4.8,4.8,0,0,0,136,87a4.49,4.49,0,0,0-.13,2.85c.32,1,.68,2,1,3a2.93,2.93,0,0,1,.81,0,.66.66,0,0,1,.42.41.6.6,0,0,1-.31.48c-.53.19-1.07.32-1.62.46l-1.71.43c-.29.08-.62.17-.73-.16a1.1,1.1,0,0,1,.2-.73c.07-.15.27-.24.47-.4-.21-.77-.44-1.54-.64-2.32-.51-1.93-1-3.87-1.51-5.79-.39-1.38-.89-2.73-1.33-4.1-.28-.85-.54-1.71-.83-2.62a6,6,0,0,1-.7.25c-.29.06-.58,0-.67-.33a.51.51,0,0,1,.33-.69c.47-.15.94-.31,1.43-.43a10.73,10.73,0,0,1,1.37-.28c.65-.09.89.14.9.8a3.32,3.32,0,0,0,.11.83c.43,1.59.88,3.18,1.32,4.77.26.92.51,1.85.79,2.91a10.54,10.54,0,0,1,.56-1.19,3,3,0,0,1,2.79-1.2,2.2,2.2,0,0,1,2.12,1.57c.43,1.2.81,2.42,1.21,3.64C141.85,89.76,142,90.38,142.25,91.08ZM131,78.21c.21.72.38,1.28.55,1.85q1.47,4.83,2.93,9.67c.31,1,.59,2,.89,3.06.08.26.2.44.56.29-.09-.28-.17-.54-.26-.81-.35-1-.76-2-1-3.1-.49-1.87-.89-3.77-1.37-5.64s-.95-3.55-1.45-5.39Z"/><path d="M146.4,109.76a45.42,45.42,0,0,0,1.94,6,3.9,3.9,0,0,1,1,0,2.12,2.12,0,0,1,.63.47c-.14.18-.25.42-.44.52a14.1,14.1,0,0,1-3.64,1.44c-.45.1-.79,0-.9-.38s.1-.58.43-.7a2.47,2.47,0,0,0,.41-.22c-.57-2.07-1.13-4.13-1.71-6.21-.5.07-1,.15-1.47.2a.52.52,0,0,1-.64-.41c-.09-.38.15-.58.49-.67s.78-.16,1.15-.23c0-.11.1-.18.08-.22a21.27,21.27,0,0,1-1.19-5.28,8.79,8.79,0,0,1,0-2,3.69,3.69,0,0,1,5.12-2.78,4.18,4.18,0,0,1,2.47,2.38c.23.55.19.82-.16,1s-.63-.1-.79-.45c-.46-1-1.51-1.31-2.32-1.89a3.28,3.28,0,0,0-1.56,2.62,16.47,16.47,0,0,0,.87,5.75l1.65-.43a1.35,1.35,0,0,1,.55-.09c.21,0,.52.18.56.33a.68.68,0,0,1-.26.61,5.71,5.71,0,0,1-1.14.4Zm.31,6.61c.66-.25.67-.25.55-.64-.21-.66-.42-1.31-.65-2a46,46,0,0,1-2-7.19c-.33-1.9-.69-3.83.12-5.72,0,0-.06-.08-.1-.14a2.32,2.32,0,0,0-1,2.13,23,23,0,0,0,.39,3.61c.26,1.31.68,2.59,1,3.89Z"/><path d="M121.67,70.78c-.45-1.32-.86-2.6-1.34-3.84a4.18,4.18,0,0,0-1.49-1.89,1.72,1.72,0,0,0-2.87.79c-.27.69-.44,1.42-.65,2.14a.9.9,0,0,0,0,.46c.36,1.16.73,2.32,1.1,3.5a1.66,1.66,0,0,1,.65.13,1.1,1.1,0,0,1,.44.63.68.68,0,0,1-.38.54c-1,.35-2.08.64-3.12.93a.47.47,0,0,1-.37,0,1.51,1.51,0,0,1-.59-.49c0-.09.22-.37.38-.53a1.75,1.75,0,0,1,.49-.22l-3.77-12a1.9,1.9,0,0,1-.73.12,1,1,0,0,1-.62-.45c-.07-.11.12-.47.29-.58a4.77,4.77,0,0,1,2.29-1c1-.06,1.15,0,1.45,1l1.59,5.47c0,.14.1.28.2.56l.47-1a2.77,2.77,0,0,1,3.84-1.37,5.81,5.81,0,0,1,2.71,3.22c.36.85.58,1.77.86,2.66.07.21.15.41.23.65a3,3,0,0,1,.84,0,.8.8,0,0,1,.5.45.93.93,0,0,1-.22.64,1,1,0,0,1-.5.24l-1.62.44c-.15,0-.34.11-.46,0a1.17,1.17,0,0,1-.53-.45c0-.09.17-.35.31-.48A3.58,3.58,0,0,1,121.67,70.78ZM115,72.65c.62-.38.3-.73.22-1-.63-2.19-1.29-4.37-2-6.54-.44-1.47-.88-2.93-1.34-4.38-.08-.24,0-.67-.47-.55s-.17.48-.13.73a16.57,16.57,0,0,0,.43,1.82c.78,2.5,1.59,5,2.4,7.48C114.42,71,114.71,71.77,115,72.65Z"/><path d="M103.79,63.17c1.45,3.88,2.34,7.77,3.85,11.51.51-.14,1-.24,1.39-.38.62-.2,1,.08,1.13.49s-.2.65-.84.8c-1.52.34-3,.67-4.55,1-.4.09-.78.22-1.17.33a.63.63,0,0,1-.85-.36c-.17-.44.15-.62.49-.75s.41-.14.67-.23l-3.66-11.3L97.59,65c.06.68.12,1.29.15,1.91a.83.83,0,0,1-.18.59.73.73,0,0,1-.6.06.59.59,0,0,1-.27-.43c-.07-.68-.11-1.37-.17-2s0-.8.65-1c1.46-.53,3-1,4.43-1.49l3.9-1.27.18-.07c1.84-.61,1.95-.3,2.82,1.4a.55.55,0,0,1-.22.81.67.67,0,0,1-.84-.18l-.06-.07c-.38-1.1-1.14-.91-1.95-.59C105,62.8,104.44,63,103.79,63.17Zm-1,.31-1.58.42c.15.46.27.84.41,1.22.65,1.85,1.32,3.69,2,5.54.41,1.2.77,2.43,1.17,3.63a6.33,6.33,0,0,0,.47.94l1.15-.32C105.2,71,104,67.28,102.84,63.48Z"/><path d="M130.22,114.41a3.56,3.56,0,0,1-1,0,.73.73,0,0,1-.5-.45.71.71,0,0,1,.3-.6,6.35,6.35,0,0,1,1.42-.45c.42-.08.68.15.82.58.36,1.09.77,2.17,1.12,3.26a7.6,7.6,0,0,0,2.19,3.1,1.2,1.2,0,0,0,.94.15,2.74,2.74,0,0,0,2.23-2.76,31.4,31.4,0,0,0-.32-3.62c-.05-.47-.18-.92-.25-1.39a.94.94,0,0,1,.55-1.16c.9-.33,1.82-.62,2.75-.87a.7.7,0,0,1,.6.29.78.78,0,0,1-.2.64,2.76,2.76,0,0,1-.67.4,26,26,0,0,0,1,4.36c.16.47.33.94.46,1.42a1.33,1.33,0,0,0,.62.87c.59.36.52.9-.13,1.17s-1.16.45-1.75.67-.84.1-1-.53c-.1-.31-.15-.63-.27-1.12a9.18,9.18,0,0,1-.45,1,7.68,7.68,0,0,1-.56.75,3.34,3.34,0,0,1-5.54-.26,17.22,17.22,0,0,1-1.24-2.51C130.93,116.38,130.59,115.38,130.22,114.41Zm9.86,3.06.09,0c-.43-1.82-.86-3.64-1.3-5.53-.54.36-.32.76-.21,1.11.39,1.31.8,2.61,1.2,3.91C139.92,117.12,140,117.29,140.08,117.47Zm.22,1.26.24-.06-.19-.61-.12,0Z"/><path d="M128.83,122a5.11,5.11,0,0,1,1.08-.22.64.64,0,0,1,.45.37c0,.1-.1.37-.23.45a3.56,3.56,0,0,1-.86.33,21.46,21.46,0,0,0-3.82,1.21c-.29.13-.61.29-.79-.12s0-.65.41-.81l.63-.27c-1.27-4.67-2.54-9.31-3.83-14l-1,.13c-.34,0-.65,0-.74-.36s.21-.55.52-.66c1-.38,2-.77,3.06-1.12s1.33-.12,1.57.85c.69,2.82,1.34,5.64,2,8.45C127.79,118.09,128.31,120,128.83,122Zm-6.12-13.43c.22.64.43,1.22.63,1.8.28.83.6,1.64.82,2.48.71,2.68,1.37,5.37,2.07,8,.15.56.38,1.1.57,1.68l.55-.17.6-.17c-.17-.49-.34-.92-.47-1.36-.33-1.13-.69-2.26-1-3.41a75.63,75.63,0,0,0-2.11-8.12c-.15-.41-.33-.79-.53-1.28Z"/><path d="M144.38,82.56a8.15,8.15,0,0,1-.82.2,6.9,6.9,0,0,1-1,.06c-.32,0-.58-.19-.53-.51a.71.71,0,0,1,.44-.5c.53-.14,1.09-.2,1.73-.31-.12-.81-.19-1.58-.35-2.33s-.18-1.47.71-1.88c.32-.14.52-.53.8-.78.56-.51.95-.39,1.09.35.2,1,.37,2.07.56,3.11,0,.18.08.36.13.61.55-.09,1.07-.18,1.59-.25.73-.09,1.06,0,1.11.37s-.29.57-1,.67c-.49.07-1,.17-1.57.28.1.57.18,1.09.28,1.59a10.59,10.59,0,0,0,1.2,3.62,3.9,3.9,0,0,0,1.86,1.77c.59.23,1,.08,1.12-.55a4.81,4.81,0,0,0,0-1.56c-.06-.4-.31-.8.15-1.08.29-.17.54.12.74.87a5.48,5.48,0,0,1,.2,1.19,2.91,2.91,0,0,1-4.35,2.6,4.86,4.86,0,0,1-1.89-1.9,12.23,12.23,0,0,1-1.85-4.76,4.85,4.85,0,0,0-.16-.63A1.29,1.29,0,0,0,144.38,82.56Zm5,6.7a7.6,7.6,0,0,1-2.55-4.56c-.22-1.22-.43-2.45-.67-3.68-.2-1-.43-1.92-.67-3l-.87.52a20.29,20.29,0,0,0,1.11,4.81c.49,1.18.82,2.42,1.35,3.57A3.68,3.68,0,0,0,149.42,89.26Z"/><path d="M132.62,65.52c-.54,0-.56.43-.54.81a2.51,2.51,0,0,1-2.2,2.43.78.78,0,0,1-.94-.35,9.32,9.32,0,0,1-1.13-2.83,9.79,9.79,0,0,1,1-.36c1-.24,2-.44,3-.69.57-.15.7-.33.59-.87a5.38,5.38,0,0,0-3.18-4.13,2.41,2.41,0,0,0-2.56.36A4.31,4.31,0,0,0,125,62.53a10.43,10.43,0,0,0,.13,4.27,5.29,5.29,0,0,0,1.27,2.35,2,2,0,0,0,1.45.75c.41,0,.81.09,1.22.11a4.14,4.14,0,0,0,3.26-1.38,3.2,3.2,0,0,0,.89-2.21C133.23,65.81,133,65.51,132.62,65.52Zm-3.76-4.84a2.59,2.59,0,0,1,1.48,1.22c.26.52.5,1.06.76,1.6-1.14.7-2.37.56-3.63,1,0-1-.15-1.93-.12-2.85S128,60.37,128.86,60.68Zm-2.61,2.09a20.53,20.53,0,0,0,1.4,5.83C126.1,67.68,125.61,65.22,126.25,62.77Z"/><path d="M118.19,97.69c.11,0,.17.08.22.09.43,0,.87.06.87.62s-.49.58-.86.68c-1.2.33-2.41.64-3.61,1l-.18,0c-.54.08-.87,0-.92-.38s.29-.54.62-.65.57-.22,1-.38l-2.2-6.13a7.07,7.07,0,0,1-.83.22,1.9,1.9,0,0,1-.82,0,.5.5,0,0,1-.08-.94c1.17-.41,2.36-.78,3.55-1.15a.69.69,0,0,1,.87.37,4.35,4.35,0,0,1,.25.59c.47,1.39.92,2.78,1.4,4.16C117.66,96.45,117.93,97,118.19,97.69Zm-1.25.44c-1-2-1-4.37-2.35-6.47-.08.38-.19.58-.15.75a16.39,16.39,0,0,0,.46,1.7c.44,1.3.91,2.58,1.38,3.86C116.37,98.21,116.52,98.44,116.94,98.13Z"/><path d="M112.87,86.05a1.79,1.79,0,0,1,1.92,1.62,2,2,0,0,1-2.09,2,1.83,1.83,0,0,1-1.58-1.9A1.9,1.9,0,0,1,112.87,86.05Zm-.45,2.16a6,6,0,0,0,.83-.09c.26-.06.45-.24.31-.55s-.32-.49-.65-.39S112.24,87.59,112.42,88.21Z"/><path d="M128.45,105.62c-1.22.11-2.41.14-3.07-1.2A4.93,4.93,0,0,0,128.45,105.62Z"/><path class="cls-4" d="M105.49,92.66a5.72,5.72,0,0,1-2.77,3.6c-.65.3-1.24.73-1.87,1.07a9.24,9.24,0,0,1-1.09.39c-.67-3.11-1.3-6-2-9a8.63,8.63,0,0,1,6.34,0,2.36,2.36,0,0,1,1.41,1.72A3.84,3.84,0,0,1,105.49,92.66Z"/><path class="cls-5" d="M95.17,89.38,96.81,89c.09.31.18.57.23.83.35,1.84.69,3.67,1,5.51.1.55.18,1.1.23,1.66.19,2,1.06,3.84,1.51,5.78,0,.14.07.29.12.51l-.73.29c-.18-.63-.33-1.19-.5-1.75-.33-1.1-.7-2.19-1-3.3-.24-.86-.36-1.77-.6-2.63C96.48,93.74,95.84,91.63,95.17,89.38Z"/><path class="cls-5" d="M103.6,97.26c.86,1.39,1.11,3,2.55,3.92l-.14.17a5.64,5.64,0,0,1-.77-.5,6.17,6.17,0,0,1-1.75-3.11C103.45,97.6,103.56,97.42,103.6,97.26Z"/><path class="cls-4" d="M127.13,93.89a3.52,3.52,0,0,1-3.06,2.23,1.82,1.82,0,0,1-1.42-.6,4.93,4.93,0,0,1-1.15-3.14,3.2,3.2,0,0,1,1.65-2.89,1.61,1.61,0,0,1,1.33-.27,6.31,6.31,0,0,1,1.49.54,2.33,2.33,0,0,1,.81.84,9.8,9.8,0,0,1,.55,1.29A2.77,2.77,0,0,1,127.13,93.89Z"/><path class="cls-5" d="M130.73,99.4a1.92,1.92,0,0,1-.27-.45c-.33-1.39-.58-2.8-1-4.17-.66-2.23-1.44-4.43-2.16-6.64-.08-.26-.39-.56.13-.8.27.66.51,1.33.83,2a20.7,20.7,0,0,1,1.64,5.82c.16,1,.4,2,.6,2.92.09.46.14.93.21,1.39Z"/><path class="cls-5" d="M130.72,99.42l.09.79h-.08v-.8Z"/><path class="cls-5" d="M115.49,126.21c-.91.15-.92.15-1.14-.44-.3-.82-.58-1.65-.86-2.47-.79-2.33-1.6-4.65-2.36-7-.39-1.21-.7-2.45-1.06-3.72l1-.38A88.08,88.08,0,0,0,115.49,126.21Z"/><path class="cls-5" d="M154.62,97.19a5.23,5.23,0,0,0-.34,3.28,34.82,34.82,0,0,0,1.67,7.25c.67,1.79,1.11,3.67,1.64,5.51-.83.38-.86.36-1.05-.36-.41-1.53-.83-3.06-1.24-4.59-.1-.39-.11-.8-.22-1.19s-.27-.53-.36-.82a20.6,20.6,0,0,1-1.51-6.22A3,3,0,0,1,154.62,97.19Z"/><path class="cls-5" d="M131,78.21l.81-.07c.5,1.84,1,3.61,1.45,5.39s.88,3.77,1.37,5.64c.28,1,.69,2.07,1,3.1.09.27.17.53.26.81-.36.15-.48,0-.56-.29-.3-1-.58-2.05-.89-3.06q-1.45-4.85-2.93-9.67C131.34,79.49,131.17,78.93,131,78.21Z"/><path class="cls-5" d="M146.71,116.37l-1.64-6c-.35-1.3-.77-2.58-1-3.89a23,23,0,0,1-.39-3.61,2.32,2.32,0,0,1,1-2.13c0,.06.11.12.1.14-.81,1.89-.45,3.82-.12,5.72a46,46,0,0,0,2,7.19c.23.65.44,1.3.65,2C147.38,116.12,147.37,116.12,146.71,116.37Z"/><path class="cls-5" d="M115,72.65c-.3-.88-.59-1.66-.84-2.45-.81-2.49-1.62-5-2.4-7.48a16.57,16.57,0,0,1-.43-1.82c0-.25-.26-.61.13-.73s.39.31.47.55c.46,1.45.9,2.91,1.34,4.38.66,2.17,1.32,4.35,2,6.54C115.31,71.92,115.63,72.27,115,72.65Z"/><path class="cls-5" d="M102.84,63.48c1.18,3.8,2.36,7.56,3.57,11.43l-1.15.32a6.33,6.33,0,0,1-.47-.94c-.4-1.2-.76-2.43-1.17-3.63-.63-1.85-1.3-3.69-2-5.54-.14-.38-.26-.76-.41-1.22Z"/><path class="cls-5" d="M140.08,117.47c-.07-.18-.16-.35-.22-.54-.4-1.3-.81-2.6-1.2-3.91-.11-.35-.33-.75.21-1.11.44,1.89.87,3.71,1.3,5.53Z"/><path class="cls-5" d="M140.3,118.73l-.07-.64.12,0,.19.61Z"/><path class="cls-5" d="M122.71,108.55l1.16-.5c.2.49.38.87.53,1.28a75.63,75.63,0,0,1,2.11,8.12c.28,1.15.64,2.28,1,3.41.13.44.3.87.47,1.36l-.6.17-.55.17c-.19-.58-.42-1.12-.57-1.68-.7-2.68-1.36-5.37-2.07-8-.22-.84-.54-1.65-.82-2.48C123.14,109.77,122.93,109.19,122.71,108.55Z"/><path class="cls-5" d="M149.42,89.26a3.68,3.68,0,0,1-2.3-2.32c-.53-1.15-.86-2.39-1.35-3.57a20.29,20.29,0,0,1-1.11-4.81l.87-.52c.24,1.06.47,2,.67,3,.24,1.23.45,2.46.67,3.68A7.6,7.6,0,0,0,149.42,89.26Z"/><path class="cls-4" d="M131.1,63.5c-1.14.7-2.37.56-3.63,1,0-1-.15-1.93-.12-2.85s.67-1.24,1.51-.93a2.59,2.59,0,0,1,1.48,1.22C130.6,62.42,130.84,63,131.1,63.5Z"/><path class="cls-5" d="M127.65,68.6c-1.55-.92-2-3.38-1.4-5.83A20.53,20.53,0,0,0,127.65,68.6Z"/><path class="cls-5" d="M116.94,98.13c-.42.31-.57.08-.66-.16-.47-1.28-.94-2.56-1.38-3.86a16.39,16.39,0,0,1-.46-1.7c0-.17.07-.37.15-.75C116,93.76,115.9,96.13,116.94,98.13Z"/><path class="cls-5" d="M112.42,88.21c-.18-.62,0-.9.49-1s.53.12.65.39,0,.49-.31.55A6,6,0,0,1,112.42,88.21Z"/></g><g id="Cone"><path class="cls-5" d="M143.77,174.56a14.82,14.82,0,0,0-4.74-1c-3.61-.17-7.23-.3-11.68-.47-1.45.07-3.73.15-6,.33a8.75,8.75,0,0,0-3.41,1,3.75,3.75,0,0,0-1.79,2.08,2,2,0,0,0,0,1.36c.62,2.06,1.27,4.11,1.8,6.2q1.44,5.61,2.74,11.27c.81,3.58,1.47,7.2,2.29,10.79s1.69,7,2.57,10.54c.52,2,1.08,4.1,1.66,6.14.47,1.65.94,3.29,1.52,4.91s1.29,3.24,2,4.85c.32.78.64,1.55,1,2.31s.7.64,1.1.09a1.09,1.09,0,0,0,.19-.33,20.07,20.07,0,0,0,1-3.49c.32-2.81,1.23-5.48,1.7-8.24s1-5.34,1.49-8c.12-.61.1-1.24.22-1.85.34-1.68.73-3.36,1.1-5q1.42-6.35,2.86-12.69c.48-2.16,1-4.32,1.44-6.49.87-4,2-7.85,2.67-11.86a1.52,1.52,0,0,0-.47-1.53A5.22,5.22,0,0,0,143.77,174.56Z"/><path d="M127.35,173.09c4.45.17,8.07.3,11.68.47a14.82,14.82,0,0,1,4.74,1,5.22,5.22,0,0,1,1.23.83,1.52,1.52,0,0,1,.47,1.53c-.64,4-1.8,7.9-2.67,11.86-.47,2.17-1,4.33-1.44,6.49q-1.44,6.34-2.86,12.69c-.37,1.67-.76,3.35-1.1,5-.12.61-.1,1.24-.22,1.85-.49,2.67-1.05,5.33-1.49,8s-1.38,5.43-1.7,8.24a20.07,20.07,0,0,1-1,3.49,1.09,1.09,0,0,1-.19.33c-.4.55-.8.54-1.1-.09s-.68-1.53-1-2.31c-.67-1.61-1.38-3.21-2-4.85s-1-3.26-1.52-4.91c-.58-2-1.14-4.09-1.66-6.14-.88-3.51-1.77-7-2.57-10.54s-1.48-7.21-2.29-10.79Q119.4,189.63,118,184c-.53-2.09-1.18-4.14-1.8-6.2a2,2,0,0,1,0-1.36,3.75,3.75,0,0,1,1.79-2.08,8.75,8.75,0,0,1,3.41-1C123.62,173.24,125.9,173.16,127.35,173.09Zm-9.78,5.7c.38,1.43.77,2.71,1.07,4q1.17,5.07,2.26,10.14c.61,2.77,1.18,5.55,1.75,8.33.25,1.25.42,2.53.69,3.77.41,1.8.87,3.58,1.32,5.37s.93,3.69,1.43,5.52c.6,2.2,1.23,4.39,1.87,6.57.56,1.91,1.1,3.83,1.75,5.72a37.7,37.7,0,0,0,1.6,3.77c.23.51.38,1.12,1.05,1.45.21-.73.43-1.4.6-2.08.24-1,.42-2,.66-3,.35-1.42.77-2.83,1.09-4.26s.5-2.76.76-4.14c.32-1.75.66-3.49,1-5.24.25-1.35.4-2.72.69-4.06.85-4,1.74-8,2.64-12,.37-1.64.82-3.27,1.2-4.91.94-4.07,1.85-8.16,2.77-12.23a11.72,11.72,0,0,0,.44-3,27.94,27.94,0,0,1-6.93,1.34,35.08,35.08,0,0,1-3.55,0c-3.19-.09-6.37-.14-9.55-.3a30.61,30.61,0,0,1-6-.63A3.94,3.94,0,0,0,117.57,178.79Zm13.37-4.44v-.23H128.6a46.33,46.33,0,0,0-8.49.59,3.85,3.85,0,0,0-2.78,1.56c-.54.83-.43,1.17.52,1.51a14.29,14.29,0,0,0,4,.68c2.24.18,4.49.28,6.73.45a46,46,0,0,0,11.12-.29c.76-.13,1.52-.32,2.3-.4a3.94,3.94,0,0,0,2.18-1c.53-.46.54-.82,0-1.3a4.41,4.41,0,0,0-2.37-1,52.09,52.09,0,0,0-7.27-.55C133.31,174.33,132.12,174.35,130.94,174.35Z"/><path class="cls-5" d="M117.57,178.79a3.94,3.94,0,0,1,.62.08,30.61,30.61,0,0,0,6,.63c3.18.16,6.36.21,9.55.3a35.08,35.08,0,0,0,3.55,0,27.94,27.94,0,0,0,6.93-1.34,11.72,11.72,0,0,1-.44,3c-.92,4.07-1.83,8.16-2.77,12.23-.38,1.64-.83,3.27-1.2,4.91-.9,4-1.79,8-2.64,12-.29,1.34-.44,2.71-.69,4.06-.31,1.75-.65,3.49-1,5.24-.26,1.38-.46,2.77-.76,4.14s-.74,2.84-1.09,4.26c-.24,1-.42,2-.66,3-.17.68-.39,1.35-.6,2.08-.67-.33-.82-.94-1.05-1.45a37.7,37.7,0,0,1-1.6-3.77c-.65-1.89-1.19-3.81-1.75-5.72-.64-2.18-1.27-4.37-1.87-6.57-.5-1.83-1-3.68-1.43-5.52s-.91-3.57-1.32-5.37c-.27-1.24-.44-2.52-.69-3.77-.57-2.78-1.14-5.56-1.75-8.33q-1.09-5.07-2.26-10.14C118.34,181.5,118,180.22,117.57,178.79Z"/><path class="cls-5" d="M130.94,174.35c1.18,0,2.37,0,3.56,0a52.09,52.09,0,0,1,7.27.55,4.41,4.41,0,0,1,2.37,1c.53.48.52.84,0,1.3a3.94,3.94,0,0,1-2.18,1c-.78.08-1.54.27-2.3.4a46,46,0,0,1-11.12.29c-2.24-.17-4.49-.27-6.73-.45a14.29,14.29,0,0,1-4-.68c-.95-.34-1.06-.68-.52-1.51a3.85,3.85,0,0,1,2.78-1.56,46.33,46.33,0,0,1,8.49-.59h2.34Z"/></g><g id="Dots"><path class="cls-5" d="M246.8,107.81l-.14,0,.09.4.13,0Z"/><path d="M119.46,243a.68.68,0,0,1,.63.66.65.65,0,0,1-.69.6.59.59,0,0,1-.57-.61A.6.6,0,0,1,119.46,243Z"/><path d="M217.38,43.2c-.65-.07-.9-.27-.86-.69a.74.74,0,0,1,.79-.64c.49,0,.68.38.42.81Z"/><path d="M17.36,82.26a1.87,1.87,0,0,1-.6.38.62.62,0,0,1-.7-.66c0-.37.21-.59.56-.56A.78.78,0,0,1,17.36,82.26Z"/><path d="M125.62,244.66a1.84,1.84,0,0,1-.42-.57.56.56,0,0,1,.51-.72.59.59,0,0,1,.66.6C126.38,244.35,126.14,244.63,125.62,244.66Z"/><path d="M25.76,63.78a1.91,1.91,0,0,1-.58.43c-.36.11-.72-.26-.7-.65a.52.52,0,0,1,.59-.55A.71.71,0,0,1,25.76,63.78Z"/><path d="M11.05,109.43a.63.63,0,0,1-.67.63.65.65,0,0,1-.69-.6c0-.35.27-.6.68-.61S11.06,109.07,11.05,109.43Z"/><path d="M82,234.13a.61.61,0,1,1,0,1.22.57.57,0,0,1-.6-.57A.67.67,0,0,1,82,234.13Z"/><path d="M36.53,47.92a.66.66,0,0,1,.64.67c0,.39-.27.55-.61.57a.55.55,0,0,1-.62-.55A.62.62,0,0,1,36.53,47.92Z"/><path d="M11.45,103.35a.64.64,0,0,1-.57-.71.56.56,0,0,1,.68-.47c.33,0,.61.18.59.58A.69.69,0,0,1,11.45,103.35Z"/><path d="M12.22,95.09a.66.66,0,0,1,.7.55.63.63,0,0,1-.63.66.68.68,0,0,1-.69-.62C11.58,95.35,11.81,95.11,12.22,95.09Z"/><path d="M106.92,241.89a1.67,1.67,0,0,1-.59.41c-.35.09-.66-.27-.64-.64a.57.57,0,0,1,.59-.59C106.65,241.06,106.94,241.35,106.92,241.89Z"/><path d="M50.48,34.85c-.58,0-.86-.25-.86-.59a.71.71,0,0,1,.76-.62c.32,0,.66.38.55.7S50.59,34.74,50.48,34.85Z"/><path d="M76.75,231.7c0,.52-.28.83-.64.81a.56.56,0,0,1-.6-.57c0-.36.3-.72.63-.64A2.22,2.22,0,0,1,76.75,231.7Z"/><path d="M113.12,242.38a2,2,0,0,1,.42.59c.09.35-.25.64-.63.63a.56.56,0,0,1-.62-.56C112.28,242.7,112.6,242.38,113.12,242.38Z"/><path d="M45.4,38.09c.54,0,.86.28.85.62a.56.56,0,0,1-.53.55c-.34,0-.79-.29-.72-.57A2,2,0,0,1,45.4,38.09Z"/><path d="M134.35,6.53c.35,0,.57.21.54.6s-.17.59-.56.6a.58.58,0,0,1-.59-.66A.53.53,0,0,1,134.35,6.53Z"/><path d="M115.29,7.47c-.1.09-.27.37-.5.46s-.66-.22-.66-.59a.53.53,0,0,1,.55-.61C115,6.72,115.29,6.87,115.29,7.47Z"/><path d="M33.05,52.82a1.89,1.89,0,0,1-.69.31.53.53,0,0,1-.54-.62c0-.39.28-.54.63-.54A.74.74,0,0,1,33.05,52.82Z"/><path d="M100.58,240.21c0,.35-.17.61-.56.6a.52.52,0,0,1-.59-.57.58.58,0,1,1,1.15,0Z"/><path d="M11.27,146a.63.63,0,0,1-.61.67.83.83,0,0,1-.79-.64c0-.44.34-.46.63-.51A.63.63,0,0,1,11.27,146Z"/><path d="M28.32,57.35c.5,0,.78.35.75.7a.55.55,0,0,1-.63.53c-.33,0-.67-.37-.57-.68A2,2,0,0,1,28.32,57.35Z"/><path d="M10.14,117.29a.67.67,0,0,1-.66.63.68.68,0,0,1-.63-.75c0-.39.29-.51.64-.5S10.16,116.94,10.14,117.29Z"/><path d="M12.23,154.46a.64.64,0,0,1-.65-.64.51.51,0,0,1,.54-.52.58.58,0,0,1,.7.46A.65.65,0,0,1,12.23,154.46Z"/><path d="M109.06,7.94a.74.74,0,0,1-.64.82.56.56,0,0,1-.6-.57c0-.36.2-.64.57-.59A1.84,1.84,0,0,1,109.06,7.94Z"/><path d="M14.2,88.15c.54,0,.81.32.8.68a.58.58,0,0,1-.69.56.57.57,0,0,1-.55-.7C13.84,88.45,14.1,88.27,14.2,88.15Z"/><path d="M10,131.2a.73.73,0,0,1-.65.79.59.59,0,0,1-.63-.54c-.06-.3.21-.66.52-.6A3,3,0,0,1,10,131.2Z"/><path d="M133.18,244.44c-.36.26-.56.52-.81.57s-.54-.23-.56-.57.29-.73.62-.62S132.85,244.15,133.18,244.44Z"/><path d="M221.85,47.26l-.58.86a.56.56,0,0,1-.7-.56.76.76,0,0,1,.31-.59A.65.65,0,0,1,221.85,47.26Z"/><path d="M236.56,181.17c-.51,0-1-.27-1-.57a.59.59,0,0,1,.57-.6.62.62,0,0,1,.62.65A1.66,1.66,0,0,1,236.56,181.17Z"/><path d="M79.43,17.86c-.36.24-.55.45-.78.49s-.58-.19-.61-.55.29-.65.59-.55S79.07,17.58,79.43,17.86Z"/><path d="M58.94,220.9c-.14.12-.33.37-.57.43a.55.55,0,0,1-.64-.6.56.56,0,0,1,.61-.55C58.71,220.18,58.91,220.37,58.94,220.9Z"/><path d="M41.14,43.48c-.11-.15-.36-.34-.42-.59s.3-.66.63-.64A.71.71,0,0,1,42,43C41.92,43.35,41.65,43.46,41.14,43.48Z"/><path d="M225.55,52.06c-.4.14-.28,1-1,.65a.58.58,0,0,1-.09-.94C224.73,51.47,225.05,51.54,225.55,52.06Z"/><path d="M91.4,13.51c-.36.28-.55.53-.8.6s-.66-.31-.62-.64a.53.53,0,0,1,.62-.54C90.84,13,91,13.24,91.4,13.51Z"/><path d="M21.52,68.73a.77.77,0,0,1,.74.57.63.63,0,0,1-1.25.07A.55.55,0,0,1,21.52,68.73Z"/><path d="M60.8,26.13a.64.64,0,0,1,.67.62.49.49,0,0,1-.56.56.59.59,0,0,1-.61-.65C60.31,26.32,60.46,26.14,60.8,26.13Z"/><path d="M13.88,160.08c.5,0,.78.14.76.55a.59.59,0,0,1-.58.6c-.35,0-.73-.28-.63-.6S13.77,160.21,13.88,160.08Z"/><path d="M141.48,7.51c-.13.11-.32.38-.56.43a.49.49,0,0,1-.59-.54c0-.35.16-.61.54-.61S141.46,7,141.48,7.51Z"/><path d="M121.85,7.62c-.12.11-.29.39-.53.45s-.57-.14-.62-.51a.51.51,0,0,1,.51-.62C121.54,6.94,121.82,7,121.85,7.62Z"/><path d="M88.85,236.63a.59.59,0,0,1-.69.57.53.53,0,0,1-.51-.64.56.56,0,0,1,.58-.59A.6.6,0,0,1,88.85,236.63Z"/><path d="M95.2,238.23c0,.51-.36.81-.69.76a.53.53,0,0,1-.51-.63c0-.35.26-.6.61-.53S95.05,238.13,95.2,238.23Z"/><path d="M96.52,11.46c-.14.11-.33.36-.57.43s-.62-.25-.61-.63a.49.49,0,0,1,.59-.53C96.27,10.75,96.5,10.92,96.52,11.46Z"/><path d="M197.79,27.16c0,.6-.29.93-.65.91a.54.54,0,0,1-.53-.54.69.69,0,0,1,.74-.66C197.53,26.89,197.7,27.09,197.79,27.16Z"/><path d="M155.84,9c-.36.27-.55.51-.8.58s-.59-.25-.59-.57a.57.57,0,0,1,.68-.57C155.35,8.5,155.52,8.72,155.84,9Z"/><path d="M102.6,9.5c0,.51-.14.76-.55.71a.58.58,0,0,1-.58-.59.6.6,0,0,1,.66-.61A.44.44,0,0,1,102.6,9.5Z"/><path d="M19.51,174.55c-.3-.35-.58-.54-.63-.78s.2-.55.55-.6.69.2.61.51A3.59,3.59,0,0,1,19.51,174.55Z"/><path d="M67.3,23.75a.49.49,0,0,1-.56.56c-.35,0-.61-.16-.61-.53a.57.57,0,0,1,.52-.64A.6.6,0,0,1,67.3,23.75Z"/><path d="M84,14.65c.53,0,.73.19.74.57s-.1.61-.5.64-.71-.28-.63-.61A1.64,1.64,0,0,1,84,14.65Z"/><path d="M33.33,196.31c-.31.32-.48.6-.72.7s-.69-.22-.68-.55a.55.55,0,0,1,.61-.56C32.76,195.91,33,196.12,33.33,196.31Z"/><path d="M127.32,7.38a2,2,0,0,1-.4-.61c-.09-.36.24-.6.66-.57s.48.23.46.57A.62.62,0,0,1,127.32,7.38Z"/><path d="M25.87,185.52c0,.51-.33.83-.65.81a.6.6,0,0,1-.55-.62.63.63,0,0,1,.75-.5C25.62,185.25,25.77,185.45,25.87,185.52Z"/><path d="M28.51,191.65a1.72,1.72,0,0,1-.38-.61c-.06-.29.36-.53.77-.49a.42.42,0,0,1,.44.48A.68.68,0,0,1,28.51,191.65Z"/><path d="M10.1,138.46a.63.63,0,0,1-.68.6.6.6,0,0,1-.52-.66.53.53,0,0,1,.63-.51A.52.52,0,0,1,10.1,138.46Z"/><path d="M191.55,23.35a.55.55,0,0,1,.59.57.56.56,0,0,1-.6.57A.53.53,0,0,1,191,24,.56.56,0,0,1,191.55,23.35Z"/><path d="M147.49,7.79a.59.59,0,0,1,.68-.59.51.51,0,0,1,.53.52.59.59,0,0,1-.62.65A.56.56,0,0,1,147.49,7.79Z"/><path d="M56.09,30.14c-.35.26-.53.49-.74.54s-.58-.17-.63-.53.26-.67.56-.58S55.72,29.87,56.09,30.14Z"/><path d="M19,75.09c.11.13.38.33.43.57s-.22.56-.56.57a.54.54,0,0,1-.61-.56C18.28,75.34,18.53,75.09,19,75.09Z"/><path d="M23.15,180c-.36.3-.54.55-.78.63a.59.59,0,0,1-.67-.58.54.54,0,0,1,.66-.48A3,3,0,0,1,23.15,180Z"/><path d="M223.46,199.27c.27.31.51.47.58.69a.47.47,0,0,1-.51.59c-.22-.06-.56-.3-.56-.46S223.22,199.63,223.46,199.27Z"/><path d="M73.48,20.37c-.34.25-.53.48-.75.51a.52.52,0,0,1-.61-.54c0-.36.21-.66.55-.56S73.12,20.09,73.48,20.37Z"/><path d="M185.37,19.76c.29.31.52.47.61.7a.55.55,0,0,1-.47.68c-.32.05-.71-.22-.64-.51A3.77,3.77,0,0,1,185.37,19.76Z"/><path d="M64,224.55c.5,0,.75.26.72.6a.56.56,0,0,1-.59.57c-.32,0-.65-.29-.55-.58A2,2,0,0,1,64,224.55Z"/><path d="M202.69,32c-.27-.34-.5-.51-.57-.73s.27-.64.63-.64.56.21.48.53A3.64,3.64,0,0,1,202.69,32Z"/><path d="M227.43,195.46a2.54,2.54,0,0,1-.66.33.45.45,0,0,1-.55-.46.51.51,0,0,1,.58-.55C227.1,194.83,227.42,194.89,227.43,195.46Z"/><path d="M238.72,72.45c.23.35.52.6.48.75a1,1,0,0,1-.57.59c-.28.11-.63-.25-.53-.55A3.46,3.46,0,0,1,238.72,72.45Z"/><path d="M161.78,10.82c-.14.12-.33.38-.57.44s-.58-.27-.55-.6a.5.5,0,0,1,.55-.5C161.53,10.17,161.75,10.31,161.78,10.82Z"/><path d="M228.92,58.42c-.68-.15-.91-.35-.79-.72a.76.76,0,0,1,.41-.43.79.79,0,0,1,.58.17c.22.18.14.35-.1.5S229,58.21,228.92,58.42Z"/><path d="M175.18,236.44c-.13.1-.31.34-.52.38-.37.08-.57-.19-.59-.54a.44.44,0,0,1,.49-.52C174.92,235.76,175.14,235.92,175.18,236.44Z"/><path d="M249.49,134.91l1,.4c-.2.64-.37.77-.77.66S249.24,135.65,249.49,134.91Z"/><path d="M17,168c-.27-.37-.53-.58-.56-.81,0-.4.31-.48.64-.47s.61.12.51.48S17.24,167.65,17,168Z"/><path d="M173.12,14.1c.26.32.51.5.54.7a.54.54,0,0,1-.48.67c-.31,0-.67-.24-.6-.54A3.14,3.14,0,0,1,173.12,14.1Z"/><path d="M71.25,228c-.35.26-.52.49-.74.55s-.69-.3-.57-.56a.93.93,0,0,1,.57-.48C70.69,227.46,70.91,227.73,71.25,228Z"/><path d="M233.76,186.37c-.29-.33-.57-.5-.63-.74s.17-.52.5-.5.67.08.62.49C234.22,185.84,234,186,233.76,186.37Z"/><path d="M37.34,201.1c.06.11.25.28.26.47a.58.58,0,0,1-.61.64c-.27-.07-.53-.2-.52-.55S36.8,201.08,37.34,201.1Z"/><path d="M191.12,227.26c.28.32.51.48.58.69s-.24.66-.52.56a.85.85,0,0,1-.5-.53C190.65,227.82,190.91,227.6,191.12,227.26Z"/><path d="M163.87,240.62a1.89,1.89,0,0,1-.53.37.5.5,0,0,1-.56-.57.78.78,0,0,1,.46-.48C163.55,239.83,163.85,240.12,163.87,240.62Z"/><path d="M167.61,12.68c0,.36-.27.66-.56.56a.92.92,0,0,1-.53-.51c-.11-.28.23-.58.57-.55S167.62,12.32,167.61,12.68Z"/><path d="M158,242.29a1.38,1.38,0,0,1-.56.31c-.4.05-.5-.28-.5-.61s.22-.42.49-.43S158,241.83,158,242.29Z"/><path d="M180.1,233c.29.3.53.45.62.67a.48.48,0,0,1-.51.59.83.83,0,0,1-.52-.5C179.65,233.58,179.9,233.35,180.1,233Z"/><path d="M212.46,38.71c.2.67.13,1-.22,1.13s-.53-.08-.63-.36S211.65,39,212.46,38.71Z"/><path d="M246.48,154.27c-.49-.07-.75-.25-.68-.61a.71.71,0,0,1,.41-.48c.25-.09.81.35.74.51A2.58,2.58,0,0,1,246.48,154.27Z"/><path d="M216.1,209.61a1.65,1.65,0,0,1-.54.33c-.32.06-.65-.27-.55-.56a.77.77,0,0,1,.48-.45C215.79,208.84,216.1,209.15,216.1,209.61Z"/><path d="M219.1,203.94c.27.33.51.51.55.73a.48.48,0,0,1-.47.57c-.31,0-.67-.28-.59-.56A3.28,3.28,0,0,1,219.1,203.94Z"/><path d="M208,36.13a3.41,3.41,0,0,1-.45-.78c0-.34.24-.48.53-.49s.62.1.53.45S208.27,35.76,208,36.13Z"/><path d="M179.87,17.65a1.85,1.85,0,0,1-.56.45c-.29.1-.55-.24-.51-.58a.51.51,0,0,1,.54-.51C179.65,17,179.85,17.16,179.87,17.65Z"/><path d="M245.2,159.13c.28.34.55.53.61.77s-.21.49-.53.46-.55-.21-.5-.53S245,159.46,245.2,159.13Z"/><path d="M47,211c.25.3.46.45.52.65a.52.52,0,0,1-.51.63c-.32,0-.61-.13-.56-.46S46.73,211.36,47,211Z"/><path d="M210.93,213c.28.36.52.56.57.81s-.25.4-.44.47a.51.51,0,0,1-.63-.5C210.47,213.52,210.69,213.32,210.93,213Z"/><path d="M184.81,231c.38-.26.56-.47.78-.52a.48.48,0,0,1,.58.47.46.46,0,0,1-.48.56C185.45,231.53,185.22,231.29,184.81,231Z"/><path d="M169.43,238.31c-.35.23-.54.45-.77.49s-.52-.17-.54-.5.28-.66.59-.56A3.4,3.4,0,0,1,169.43,238.31Z"/><path d="M232.91,62.63c-.18.21-.32.3-.35.42-.07.28-.18.49-.49.4a.51.51,0,0,1-.35-.67c.07-.29.24-.52.59-.45A3.64,3.64,0,0,1,232.91,62.63Z"/><path d="M249.84,123.26l.69.4c.06.39-.1.63-.48.62a.76.76,0,0,1-.52-.27C249.33,123.7,249.44,123.42,249.84,123.26Z"/><path d="M245.23,89.38c-.74.23-.88.19-1-.21s0-.49.7-.69Z"/><path d="M9.46,125.44c-.24-.31-.47-.49-.52-.71s.15-.51.49-.52.69.26.6.53S9.72,125.13,9.46,125.44Z"/><path d="M231,190.7c-.38.27-.56.48-.79.54a.44.44,0,0,1-.59-.41c0-.32.11-.6.44-.57A3.61,3.61,0,0,1,231,190.7Z"/><path d="M248.81,111.39l.77.7c-.33.37-.64.46-.92.23S248.4,111.85,248.81,111.39Z"/><path d="M249.87,116.73l.82.64c-.2.17-.37.41-.58.47a.66.66,0,0,1-.53-.28C249.37,117.24,249.55,117,249.87,116.73Z"/><path d="M42.39,206.81c-.32.26-.49.5-.71.54s-.53-.15-.55-.48a.5.5,0,0,1,.6-.52C41.93,206.39,42.08,206.59,42.39,206.81Z"/><path d="M52.51,215.35a2.8,2.8,0,0,1,.34.85c0,.29-.2.59-.51.48a.79.79,0,0,1-.42-.61C51.92,215.88,52.21,215.7,52.51,215.35Z"/><path d="M196.73,224.85a3.31,3.31,0,0,1-.77.53.54.54,0,0,1-.59-.57.46.46,0,0,1,.57-.46C196.17,224.4,196.36,224.61,196.73,224.85Z"/><path d="M248.59,147.34c-.25.77-.45,1-.81.75-.16-.1-.34-.43-.29-.57C247.74,146.9,248.15,147.43,248.59,147.34Z"/><path d="M236,67.71l-.63.85c-.44-.15-.6-.44-.42-.86S235.45,67.36,236,67.71Z"/><path d="M249.5,141.62c0,.45-.22.71-.64.62a.75.75,0,0,1-.42-.4.54.54,0,0,1,.14-.48.68.68,0,0,1,.49,0A1.6,1.6,0,0,1,249.5,141.62Z"/><path d="M238.56,175.8c.33-.22.5-.45.68-.45s.61,0,.58.45a.46.46,0,0,1-.56.47C239.06,176.24,238.89,176,238.56,175.8Z"/><path d="M151.93,243.16c-.31.24-.48.46-.7.52s-.55-.24-.53-.59.23-.54.53-.47S151.62,242.9,151.93,243.16Z"/><path d="M138.42,243.83c.25.38.47.57.51.79a.46.46,0,0,1-.48.56.46.46,0,0,1-.5-.54C138,244.42,138.18,244.22,138.42,243.83Z"/><path d="M206.79,217.68c-.37.27-.55.5-.76.54a.47.47,0,0,1-.56-.47c0-.28.1-.53.39-.5A3.88,3.88,0,0,1,206.79,217.68Z"/><path d="M248.49,105.82l.67.79c-.46.42-.72.48-1,.22S248,106.26,248.49,105.82Z"/><path d="M243.87,164.88a4,4,0,0,1,.67.76c0,.05-.28.37-.47.42a.41.41,0,0,1-.55-.44C243.53,165.43,243.69,165.24,243.87,164.88Z"/><path d="M241.36,78.07,241,79c-.44-.09-.76-.27-.57-.73S240.9,77.72,241.36,78.07Z"/><path d="M249.46,129.12l.76.42c0,.35-.14.6-.52.59a.71.71,0,0,1-.52-.28A.46.46,0,0,1,249.46,129.12Z"/><path d="M243.75,83.73c-.47.24-.8.24-1-.23-.09-.29,0-.63.34-.66C243.87,82.77,243.52,83.41,243.75,83.73Z"/><path d="M201.45,222c-.48,0-.71-.25-.69-.6s.2-.41.48-.41.57.16.53.48S201.53,221.86,201.45,222Z"/><path d="M242.42,170.71c-.38.61-.71.78-.93.52a.73.73,0,0,1-.13-.65C241.72,170.08,242,170.5,242.42,170.71Z"/><path d="M144.56,244.2c-.2-.36-.42-.58-.41-.79s.26-.4.45-.45.6.31.5.61S144.83,243.9,144.56,244.2Z"/><path d="M246,95.11c-.47.16-.83.1-.93-.29s.21-.6.64-.68Z"/><path d="M244.67,94.18,244.16,92l.1,0c.1.34.22.68.3,1s.16.77.24,1.15Z"/><path d="M247.52,99.89l.43.87c-.2.3-.47.39-.72.1S247.07,100.19,247.52,99.89Z"/><path d="M243.76,90.53l-.24-1,.09,0,.29,1Z"/><path d="M243.6,86.73l.36.63C243.47,87.26,243.46,87,243.6,86.73Z"/><path d="M246.8,107.81l.08.4-.13,0-.09-.4Z"/></g></svg>